<svg id="Calque_1" data-name="Calque 1" xmlns="http://www.w3.org/2000/svg" xmlns:xlink="http://www.w3.org/1999/xlink" viewBox="0 0 1869 790.51"><defs><style>.cls-1{fill:url(#Dégradé_sans_nom_101);}.cls-2{clip-path:url(#clip-path);}</style><linearGradient id="Dégradé_sans_nom_101" x1="1430.72" y1="382.19" x2="1474.53" y2="382.19" gradientUnits="userSpaceOnUse"><stop offset="0" stop-color="#428ce1"/><stop offset="0.23" stop-color="#00a6ef"/><stop offset="0.46" stop-color="#00beea"/><stop offset="0.74" stop-color="#00d2d5"/><stop offset="1" stop-color="#00e2b8"/></linearGradient><clipPath id="clip-path"><path class="cls-1" d="M1465.16,357.69a21.15,21.15,0,0,1,3.3,5.83,31.38,31.38,0,0,1,1.84,6.52,25.15,25.15,0,0,1,.27,7,17.74,17.74,0,0,1-2.36,7.06,37.42,37.42,0,0,0-4.85,10.87,16.21,16.21,0,0,0,1.8,11.71,12.92,12.92,0,0,1-4.5-5.15,15.11,15.11,0,0,1-1.36-7,27.72,27.72,0,0,1,4.45-13.13c1.86-3,2.47-6.88,2.5-11A73.44,73.44,0,0,0,1465.16,357.69Z"/></clipPath></defs><title>img_5</title><path class="cls-1" d="M1465.16,357.69a21.15,21.15,0,0,1,3.3,5.83,31.38,31.38,0,0,1,1.84,6.52,25.15,25.15,0,0,1,.27,7,17.74,17.74,0,0,1-2.36,7.06,37.42,37.42,0,0,0-4.85,10.87,16.21,16.21,0,0,0,1.8,11.71,12.92,12.92,0,0,1-4.5-5.15,15.11,15.11,0,0,1-1.36-7,27.72,27.72,0,0,1,4.45-13.13c1.86-3,2.47-6.88,2.5-11A73.44,73.44,0,0,0,1465.16,357.69Z"/><g class="cls-2"><rect class="cls-1" x="1459.19" y="357.69" width="0.04" height="49"/><rect class="cls-1" x="1459.23" y="357.69" width="0.04" height="49"/><rect class="cls-1" x="1459.27" y="357.69" width="0.04" height="49"/><rect class="cls-1" x="1459.32" y="357.69" width="0.04" height="49"/><rect class="cls-1" x="1459.36" y="357.69" width="0.04" height="49"/><rect class="cls-1" x="1459.4" y="357.69" width="0.04" height="49"/><rect class="cls-1" x="1459.45" y="357.69" width="0.04" height="49"/><rect class="cls-1" x="1459.49" y="357.69" width="0.04" height="49"/><rect class="cls-1" x="1459.53" y="357.69" width="0.04" height="49"/><rect class="cls-1" x="1459.58" y="357.69" width="0.04" height="49"/><rect class="cls-1" x="1459.62" y="357.69" width="0.04" height="49"/><rect class="cls-1" x="1459.66" y="357.69" width="0.04" height="49"/><rect class="cls-1" x="1459.71" y="357.69" width="0.04" height="49"/><rect class="cls-1" x="1459.75" y="357.69" width="0.04" height="49"/><rect class="cls-1" x="1459.79" y="357.69" width="0.04" height="49"/><rect class="cls-1" x="1459.84" y="357.69" width="0.04" height="49"/><rect class="cls-1" x="1459.88" y="357.69" width="0.04" height="49"/><rect class="cls-1" x="1459.92" y="357.69" width="0.04" height="49"/><rect class="cls-1" x="1459.97" y="357.69" width="0.04" height="49"/><rect class="cls-1" x="1460.01" y="357.69" width="0.04" height="49"/><rect class="cls-1" x="1460.05" y="357.69" width="0.04" height="49"/><rect class="cls-1" x="1460.09" y="357.69" width="0.04" height="49"/><rect class="cls-1" x="1460.14" y="357.69" width="0.04" height="49"/><rect class="cls-1" x="1460.18" y="357.69" width="0.04" height="49"/><rect class="cls-1" x="1460.22" y="357.69" width="0.04" height="49"/><rect class="cls-1" x="1460.27" y="357.69" width="0.04" height="49"/><rect class="cls-1" x="1460.31" y="357.69" width="0.04" height="49"/><rect class="cls-1" x="1460.35" y="357.69" width="0.04" height="49"/><rect class="cls-1" x="1460.4" y="357.69" width="0.04" height="49"/><rect class="cls-1" x="1460.44" y="357.69" width="0.04" height="49"/><rect class="cls-1" x="1460.48" y="357.69" width="0.04" height="49"/><rect class="cls-1" x="1460.53" y="357.69" width="0.04" height="49"/><rect class="cls-1" x="1460.57" y="357.69" width="0.04" height="49"/><rect class="cls-1" x="1460.61" y="357.69" width="0.04" height="49"/><rect class="cls-1" x="1460.66" y="357.69" width="0.04" height="49"/><rect class="cls-1" x="1460.7" y="357.69" width="0.04" height="49"/><rect class="cls-1" x="1460.74" y="357.69" width="0.04" height="49"/><rect class="cls-1" x="1460.79" y="357.69" width="0.04" height="49"/><rect class="cls-1" x="1460.83" y="357.69" width="0.04" height="49"/><rect class="cls-1" x="1460.87" y="357.69" width="0.04" height="49"/><rect class="cls-1" x="1460.91" y="357.69" width="0.04" height="49"/><rect class="cls-1" x="1460.96" y="357.69" width="0.04" height="49"/><rect class="cls-1" x="1461" y="357.69" width="0.04" height="49"/><rect class="cls-1" x="1461.04" y="357.69" width="0.04" height="49"/><rect class="cls-1" x="1461.09" y="357.69" width="0.04" height="49"/><rect class="cls-1" x="1461.13" y="357.69" width="0.04" height="49"/><rect class="cls-1" x="1461.17" y="357.69" width="0.04" height="49"/><rect class="cls-1" x="1461.22" y="357.69" width="0.04" height="49"/><rect class="cls-1" x="1461.26" y="357.69" width="0.04" height="49"/><rect class="cls-1" x="1461.3" y="357.69" width="0.04" height="49"/><rect class="cls-1" x="1461.35" y="357.69" width="0.04" height="49"/><rect class="cls-1" x="1461.39" y="357.69" width="0.04" height="49"/><rect class="cls-1" x="1461.43" y="357.69" width="0.12" height="49"/><rect class="cls-1" x="1461.55" y="357.69" width="0.12" height="49"/><rect class="cls-1" x="1461.67" y="357.69" width="0.12" height="49"/><rect class="cls-1" x="1461.79" y="357.69" width="0.12" height="49"/><rect class="cls-1" x="1461.91" y="357.69" width="0.12" height="49"/><rect class="cls-1" x="1462.03" y="357.69" width="0.12" height="49"/><rect class="cls-1" x="1462.14" y="357.69" width="0.12" height="49"/><rect class="cls-1" x="1462.26" y="357.69" width="0.12" height="49"/><rect class="cls-1" x="1462.38" y="357.69" width="0.12" height="49"/><rect class="cls-1" x="1462.5" y="357.69" width="0.12" height="49"/><rect class="cls-1" x="1462.62" y="357.69" width="0.12" height="49"/><rect class="cls-1" x="1462.74" y="357.69" width="0.12" height="49"/><rect class="cls-1" x="1462.86" y="357.69" width="0.12" height="49"/><rect class="cls-1" x="1462.98" y="357.69" width="0.12" height="49"/><rect class="cls-1" x="1463.09" y="357.69" width="0.12" height="49"/><rect class="cls-1" x="1463.21" y="357.69" width="0.12" height="49"/><rect class="cls-1" x="1463.33" y="357.69" width="0.12" height="49"/><rect class="cls-1" x="1463.45" y="357.69" width="0.12" height="49"/><rect class="cls-1" x="1463.57" y="357.69" width="0.12" height="49"/><rect class="cls-1" x="1463.69" y="357.69" width="0.12" height="49"/><rect class="cls-1" x="1463.81" y="357.69" width="0.12" height="49"/><rect class="cls-1" x="1463.92" y="357.69" width="0.12" height="49"/><rect class="cls-1" x="1464.04" y="357.69" width="0.12" height="49"/><rect class="cls-1" x="1464.16" y="357.69" width="0.12" height="49"/><rect class="cls-1" x="1464.28" y="357.69" width="0.17" height="49"/><rect class="cls-1" x="1464.45" y="357.69" width="0.17" height="49"/><rect class="cls-1" x="1464.61" y="357.69" width="0.17" height="49"/><rect class="cls-1" x="1464.78" y="357.69" width="0.17" height="49"/><rect class="cls-1" x="1464.95" y="357.69" width="0.17" height="49"/><rect class="cls-1" x="1465.11" y="357.69" width="0.17" height="49"/><rect class="cls-1" x="1465.28" y="357.69" width="0.17" height="49"/><rect class="cls-1" x="1465.44" y="357.69" width="0.17" height="49"/><rect class="cls-1" x="1465.61" y="357.69" width="0.17" height="49"/><rect class="cls-1" x="1465.78" y="357.69" width="0.17" height="49"/><rect class="cls-1" x="1465.94" y="357.69" width="0.17" height="49"/><rect class="cls-1" x="1466.11" y="357.69" width="0.17" height="49"/><rect class="cls-1" x="1466.27" y="357.69" width="0.17" height="49"/><rect class="cls-1" x="1466.44" y="357.69" width="0.17" height="49"/><rect class="cls-1" x="1466.61" y="357.69" width="0.17" height="49"/><rect class="cls-1" x="1466.77" y="357.69" width="0.17" height="49"/><rect class="cls-1" x="1466.94" y="357.69" width="0.17" height="49"/><rect class="cls-1" x="1467.1" y="357.69" width="0.17" height="49"/><rect class="cls-1" x="1467.27" y="357.69" width="0.17" height="49"/><rect class="cls-1" x="1467.44" y="357.69" width="0.17" height="49"/><rect class="cls-1" x="1467.6" y="357.69" width="0.17" height="49"/><rect class="cls-1" x="1467.77" y="357.69" width="0.11" height="49"/><rect class="cls-1" x="1467.88" y="357.69" width="0.11" height="49"/><rect class="cls-1" x="1467.99" y="357.69" width="0.11" height="49"/><rect class="cls-1" x="1468.11" y="357.69" width="0.11" height="49"/><rect class="cls-1" x="1468.22" y="357.69" width="0.11" height="49"/><rect class="cls-1" x="1468.33" y="357.69" width="0.11" height="49"/><rect class="cls-1" x="1468.44" y="357.69" width="0.11" height="49"/><rect class="cls-1" x="1468.55" y="357.69" width="0.11" height="49"/><rect class="cls-1" x="1468.67" y="357.69" width="0.11" height="49"/><rect class="cls-1" x="1468.78" y="357.69" width="0.11" height="49"/><rect class="cls-1" x="1468.89" y="357.69" width="0.11" height="49"/><rect class="cls-1" x="1469" y="357.69" width="0.11" height="49"/><rect class="cls-1" x="1469.12" y="357.69" width="0.11" height="49"/><rect class="cls-1" x="1469.23" y="357.69" width="0.11" height="49"/><rect class="cls-1" x="1469.34" y="357.69" width="0.11" height="49"/><rect class="cls-1" x="1469.45" y="357.69" width="0.11" height="49"/><rect class="cls-1" x="1469.56" y="357.69" width="0.11" height="49"/><rect class="cls-1" x="1469.68" y="357.69" width="0.11" height="49"/><rect class="cls-1" x="1469.79" y="357.69" width="0.11" height="49"/><rect class="cls-1" x="1469.9" y="357.69" width="0.11" height="49"/><rect class="cls-1" x="1470.01" y="357.69" width="0.11" height="49"/><rect class="cls-1" x="1470.13" y="357.69" width="0.11" height="49"/><rect class="cls-1" x="1470.24" y="357.69" width="0.11" height="49"/><rect class="cls-1" x="1470.35" y="357.69" width="0.11" height="49"/><rect class="cls-1" x="1470.46" y="357.69" width="0.11" height="49"/><rect class="cls-1" x="1470.57" y="357.69" width="0.11" height="49"/><rect class="cls-1" x="1470.69" y="357.69" width="0.11" height="49"/><rect class="cls-1" x="1470.8" y="357.69" width="0.01" height="49"/></g></svg>