<svg id="Calque_1" data-name="Calque 1" xmlns="http://www.w3.org/2000/svg" xmlns:xlink="http://www.w3.org/1999/xlink" viewBox="0 0 1869 790.51"><defs><style>.cls-1{fill:#fff;}.cls-12,.cls-2{opacity:0.18;}.cls-2{fill:url(#Dégradé_sans_nom_105);}.cls-3{fill:url(#Dégradé_sans_nom_101);}.cls-4{fill:url(#Dégradé_sans_nom_101-2);}.cls-5{fill:url(#Dégradé_sans_nom_101-3);}.cls-6{fill:url(#Dégradé_sans_nom_101-4);}.cls-7{fill:url(#Dégradé_sans_nom_101-5);}.cls-8{fill:url(#Dégradé_sans_nom_101-6);}.cls-9{fill:url(#Dégradé_sans_nom_101-7);}.cls-10{fill:url(#Dégradé_sans_nom_101-9);}.cls-11,.cls-12{fill:#428ce1;}.cls-11{opacity:0.2;}.cls-13{fill:url(#Dégradé_sans_nom_101-10);}.cls-14{fill:url(#Dégradé_sans_nom_101-11);}.cls-15{fill:url(#Dégradé_sans_nom_101-12);}.cls-16{fill:url(#Dégradé_sans_nom_101-23);}.cls-17{fill:url(#Dégradé_sans_nom_101-29);}.cls-18{fill:url(#Dégradé_sans_nom_101-32);}.cls-19{fill:url(#Dégradé_sans_nom_101-51);}.cls-20{fill:url(#Dégradé_sans_nom_101-52);}.cls-21{fill:url(#Dégradé_sans_nom_101-58);}.cls-22{fill:url(#Dégradé_sans_nom_101-61);}.cls-23,.cls-24,.cls-25,.cls-26,.cls-27,.cls-28,.cls-29,.cls-30{fill-rule:evenodd;}.cls-23{fill:url(#Dégradé_sans_nom_101-62);}.cls-24{fill:url(#Dégradé_sans_nom_101-63);}.cls-25{fill:url(#Dégradé_sans_nom_101-64);}.cls-26{fill:url(#Dégradé_sans_nom_101-65);}.cls-27{fill:url(#Dégradé_sans_nom_101-66);}.cls-28{fill:url(#Dégradé_sans_nom_101-67);}.cls-29{fill:url(#Dégradé_sans_nom_101-68);}.cls-30{fill:url(#Dégradé_sans_nom_101-69);}</style><linearGradient id="Dégradé_sans_nom_105" x1="1558" y1="268.37" x2="1558" y2="465.34" gradientUnits="userSpaceOnUse"><stop offset="0" stop-color="#428ce1"/><stop offset="1" stop-color="#428ce1" stop-opacity="0"/></linearGradient><linearGradient id="Dégradé_sans_nom_101" x1="29.97" y1="152.92" x2="1710.78" y2="152.92" gradientUnits="userSpaceOnUse"><stop offset="0" stop-color="#428ce1"/><stop offset="0.23" stop-color="#00a6ef"/><stop offset="0.46" stop-color="#00beea"/><stop offset="0.74" stop-color="#00d2d5"/><stop offset="1" stop-color="#00e2b8"/></linearGradient><linearGradient id="Dégradé_sans_nom_101-2" x1="29.97" y1="333.86" x2="1710.78" y2="333.86" xlink:href="#Dégradé_sans_nom_101"/><linearGradient id="Dégradé_sans_nom_101-3" x1="29.97" y1="255.05" x2="1710.78" y2="255.05" xlink:href="#Dégradé_sans_nom_101"/><linearGradient id="Dégradé_sans_nom_101-4" x1="33.46" y1="460.36" x2="1655.97" y2="460.36" xlink:href="#Dégradé_sans_nom_101"/><linearGradient id="Dégradé_sans_nom_101-5" x1="33.46" y1="444.38" x2="1655.97" y2="444.38" xlink:href="#Dégradé_sans_nom_101"/><linearGradient id="Dégradé_sans_nom_101-6" x1="29.97" y1="190.53" x2="1710.78" y2="190.53" xlink:href="#Dégradé_sans_nom_101"/><linearGradient id="Dégradé_sans_nom_101-7" x1="29.97" y1="236.29" x2="1710.78" y2="236.29" xlink:href="#Dégradé_sans_nom_101"/><linearGradient id="Dégradé_sans_nom_101-9" x1="29.97" y1="248.84" x2="1710.78" y2="248.84" xlink:href="#Dégradé_sans_nom_101"/><linearGradient id="Dégradé_sans_nom_101-10" x1="29.97" y1="278.62" x2="1710.78" y2="278.62" xlink:href="#Dégradé_sans_nom_101"/><linearGradient id="Dégradé_sans_nom_101-11" x1="29.97" y1="143.27" x2="1710.78" y2="143.27" xlink:href="#Dégradé_sans_nom_101"/><linearGradient id="Dégradé_sans_nom_101-12" x1="29.97" y1="171.36" x2="1710.78" y2="171.36" xlink:href="#Dégradé_sans_nom_101"/><linearGradient id="Dégradé_sans_nom_101-23" x1="29.97" y1="116.92" x2="1710.78" y2="116.92" xlink:href="#Dégradé_sans_nom_101"/><linearGradient id="Dégradé_sans_nom_101-29" x1="29.97" y1="145.23" x2="1710.78" y2="145.23" xlink:href="#Dégradé_sans_nom_101"/><linearGradient id="Dégradé_sans_nom_101-32" x1="29.97" y1="152.92" x2="1710.78" y2="152.92" xlink:href="#Dégradé_sans_nom_101"/><linearGradient id="Dégradé_sans_nom_101-51" x1="29.97" y1="113.49" x2="1710.78" y2="113.49" xlink:href="#Dégradé_sans_nom_101"/><linearGradient id="Dégradé_sans_nom_101-52" x1="29.97" y1="158.98" x2="1710.78" y2="158.98" xlink:href="#Dégradé_sans_nom_101"/><linearGradient id="Dégradé_sans_nom_101-58" x1="29.97" y1="174.11" x2="1710.78" y2="174.11" xlink:href="#Dégradé_sans_nom_101"/><linearGradient id="Dégradé_sans_nom_101-61" x1="29.97" y1="492.97" x2="1710.78" y2="492.97" xlink:href="#Dégradé_sans_nom_101"/><linearGradient id="Dégradé_sans_nom_101-62" x1="26.92" y1="481.71" x2="1710.2" y2="481.71" xlink:href="#Dégradé_sans_nom_101"/><linearGradient id="Dégradé_sans_nom_101-63" x1="26.92" y1="484.84" x2="1710.2" y2="484.84" xlink:href="#Dégradé_sans_nom_101"/><linearGradient id="Dégradé_sans_nom_101-64" x1="26.92" y1="488.15" x2="1710.2" y2="488.15" xlink:href="#Dégradé_sans_nom_101"/><linearGradient id="Dégradé_sans_nom_101-65" x1="26.92" y1="482.82" x2="1710.2" y2="482.82" xlink:href="#Dégradé_sans_nom_101"/><linearGradient id="Dégradé_sans_nom_101-66" x1="26.92" y1="497.38" x2="1710.2" y2="497.38" xlink:href="#Dégradé_sans_nom_101"/><linearGradient id="Dégradé_sans_nom_101-67" x1="26.92" y1="500.51" x2="1710.2" y2="500.51" xlink:href="#Dégradé_sans_nom_101"/><linearGradient id="Dégradé_sans_nom_101-68" x1="26.92" y1="503.83" x2="1710.2" y2="503.83" xlink:href="#Dégradé_sans_nom_101"/><linearGradient id="Dégradé_sans_nom_101-69" x1="26.92" y1="498.5" x2="1710.2" y2="498.5" xlink:href="#Dégradé_sans_nom_101"/></defs><title>img_0</title><path class="cls-1" d="M1198.88,112.58V467.72a27.45,27.45,0,0,1-27.43,27.43h-240v61.41h37.87a4.61,4.61,0,0,1,4.58,4.58V578a4.58,4.58,0,0,1-4.58,4.57H764.79a4.56,4.56,0,0,1-4.58-4.57V561.14a4.59,4.59,0,0,1,4.58-4.58h37.84V495.15h-240a27.44,27.44,0,0,1-27.41-27.43V112.58a27.46,27.46,0,0,1,27.41-27.44h608.8A27.48,27.48,0,0,1,1198.88,112.58Z"/><polygon class="cls-2" points="1846.68 454.12 1392.38 449.66 1270.74 290.66 1269.33 267.09 1703.59 267.09 1846.68 454.12"/><rect class="cls-1" x="1273.52" y="269.05" width="429.69" height="18.48"/><path class="cls-3" d="M455.41,266.25H79.35V39.58H455.41ZM83.27,262.33H451.49V43.51H83.27Z"/><path class="cls-1" d="M1199.31,112.86V468a27.46,27.46,0,0,1-27.41,27.44h-240v61.41h37.84a4.57,4.57,0,0,1,4.58,4.58v16.86a4.58,4.58,0,0,1-4.58,4.58H765.22a4.59,4.59,0,0,1-4.58-4.58V561.42a4.58,4.58,0,0,1,4.58-4.58h37.87V495.43h-240A27.48,27.48,0,0,1,535.67,468V112.86A27.46,27.46,0,0,1,563.1,85.42h608.8A27.44,27.44,0,0,1,1199.31,112.86Z"/><path class="cls-4" d="M1171.78,85.15H563a27.45,27.45,0,0,0-27.42,27.42V467.72A27.45,27.45,0,0,0,563,495.15H803v61.41H765.11a4.58,4.58,0,0,0-4.58,4.57V578a4.59,4.59,0,0,0,4.58,4.58H969.66a4.58,4.58,0,0,0,4.58-4.58V561.13a4.58,4.58,0,0,0-4.58-4.57H931.8V495.15h240a27.45,27.45,0,0,0,27.43-27.43V112.57A27.45,27.45,0,0,0,1171.78,85.15ZM563,89.07h608.79a23.52,23.52,0,0,1,23.5,23.5V420.13H539.49V112.57A23.52,23.52,0,0,1,563,89.07ZM969.66,560.48a.66.66,0,0,1,.66.65V578a.67.67,0,0,1-.66.66H765.11a.66.66,0,0,1-.65-.66V561.13a.65.65,0,0,1,.65-.65H969.66Zm-41.79-3.92h-121V495.15h121Zm243.91-65.33H563a23.53,23.53,0,0,1-23.5-23.51V424.05h655.79v43.67A23.53,23.53,0,0,1,1171.78,491.23Z"/><path class="cls-5" d="M1174.23,109.49H560.55V400.61h613.68Zm-3.92,287.2H564.47V113.41h605.84Z"/><path class="cls-6" d="M872.11,461.05a11.42,11.42,0,0,1-1-2.17c-.07-.25-.14-.6-.21-1-.51-2.58-1.53-7.86-6.57-8.17a6.47,6.47,0,0,1,.5-1.32,3.9,3.9,0,0,1,3.45-2.35.52.52,0,0,0,.49-.55.53.53,0,0,0-.55-.5c-3.17.17-4.56,2.82-5,4.73-4.93.4-6,5.61-6.45,8.16-.08.41-.15.75-.21,1a11.55,11.55,0,0,1-1,2.17,12.7,12.7,0,0,0-2,6.09,8.28,8.28,0,0,0,2.08,5.7c1.77,1.91,4.53,2.88,8.2,2.88,9.53,0,10.28-6.57,10.28-8.58A12.61,12.61,0,0,0,872.11,461.05Z"/><path class="cls-7" d="M862.07,449.19c.21,0,.43,0,.66,0a.52.52,0,0,0,.43-.27,4,4,0,0,0,.28-3.47c-1.4-3.59-7.73-5.75-8-5.84a.52.52,0,0,0-.68.42c0,.18-.6,4.4,1.85,7.09A7.05,7.05,0,0,0,862.07,449.19Z"/><path class="cls-8" d="M1429.7,219.45h-36.93V148.81a18.95,18.95,0,1,0-12.57,0v70.64h-36.92a4.59,4.59,0,0,0-4.58,4.58v40.45a4.58,4.58,0,0,0,4.58,4.57h86.42a4.58,4.58,0,0,0,4.57-4.57V224A4.58,4.58,0,0,0,1429.7,219.45ZM1371.46,131a15,15,0,1,1,15,15A15,15,0,0,1,1371.46,131Zm12.67,19h4.72v69.55h-4.72Zm46.22,114.58a.65.65,0,0,1-.65.65h-86.42a.65.65,0,0,1-.65-.65V224a.66.66,0,0,1,.65-.66h86.42a.66.66,0,0,1,.65.66Z"/><path class="cls-9" d="M1406.67,241.47a5.18,5.18,0,1,0-5.18-5.18A5.18,5.18,0,0,0,1406.67,241.47Zm0-7.74a2.56,2.56,0,1,1-2.56,2.56A2.56,2.56,0,0,1,1406.67,233.73Z"/><path class="cls-9" d="M1419.06,231.12a5.18,5.18,0,1,0,5.17,5.17A5.18,5.18,0,0,0,1419.06,231.12Zm0,7.73a2.56,2.56,0,1,1,2.56-2.56A2.56,2.56,0,0,1,1419.06,238.85Z"/><path class="cls-10" d="M1420.31,242.94h-15.47a3.93,3.93,0,0,0-3.92,3.93v3.95a3.93,3.93,0,0,0,3.92,3.92h15.47a3.92,3.92,0,0,0,3.92-3.92v-3.95A3.92,3.92,0,0,0,1420.31,242.94Zm1.31,7.88a1.31,1.31,0,0,1-1.31,1.3h-15.47a1.31,1.31,0,0,1-1.31-1.3v-3.95a1.31,1.31,0,0,1,1.31-1.31h15.47a1.31,1.31,0,0,1,1.31,1.31Z"/><ellipse class="cls-11" cx="1381.25" cy="125.78" rx="7.36" ry="3.68" transform="translate(470.52 1171.84) rotate(-54.16)"/><rect class="cls-11" x="432.78" y="21.63" width="13.74" height="61.49" transform="translate(91.74 326.22) rotate(-45)"/><rect class="cls-11" x="84.87" y="217.38" width="13.74" height="61.49" transform="translate(-148.58 137.55) rotate(-45)"/><rect class="cls-11" x="88.14" y="24.99" width="13.74" height="61.49" transform="translate(122.78 162.33) rotate(-135)"/><rect class="cls-11" x="432.78" y="222.31" width="13.74" height="61.49" transform="translate(571.6 742.86) rotate(-135)"/><rect class="cls-12" x="806.9" y="495.15" width="120.97" height="4.1"/><path class="cls-13" d="M1702.55,292.11h-429a4.59,4.59,0,0,1-4.58-4.58V269.71a4.59,4.59,0,0,1,4.58-4.58h429a4.59,4.59,0,0,1,4.58,4.58v17.82A4.59,4.59,0,0,1,1702.55,292.11Zm-429-23.06a.66.66,0,0,0-.65.66v17.82a.66.66,0,0,0,.65.66h429a.66.66,0,0,0,.65-.66V269.71a.66.66,0,0,0-.65-.66Z"/><path class="cls-14" d="M124.6,151.93h8.26V134.61H124.6Zm1.31-12.08h2.17v10.77h-2.17Zm3.47,10.77V139.85h2.17v10.77Zm2.17-14.7v2.62h-5.64v-2.62Z"/><path class="cls-15" d="M124.6,180h8.26V162.7H124.6Zm1.31-12.08h2.17v10.78h-2.17Zm3.47,10.78V167.93h2.17v10.78ZM131.55,164v2.62h-5.64V164Z"/><path class="cls-15" d="M140,180h8.25V162.7H140Zm1.31-12.08h2.16v10.78h-2.16Zm3.47,10.78V167.93H147v10.78ZM147,164v2.62h-5.64V164Z"/><path class="cls-15" d="M156.58,180h8.25V162.7h-8.25Zm1.31-12.08h2.16v10.78h-2.16Zm3.47,10.78V167.93h2.17v10.78ZM163.53,164v2.62h-5.64V164Z"/><path class="cls-15" d="M172.93,180h8.26V162.7h-8.26Zm1.31-12.08h2.17v10.78h-2.17Zm3.48,10.78V167.93h2.16v10.78ZM179.88,164v2.62h-5.64V164Z"/><path class="cls-15" d="M188.94,180h8.26V162.7h-8.26Zm1.31-12.08h2.17v10.78h-2.17Zm3.48,10.78V167.93h2.16v10.78ZM195.89,164v2.62h-5.64V164Z"/><path class="cls-15" d="M205.56,180h8.25V162.7h-8.25Zm1.31-12.08H209v10.78h-2.16Zm3.47,10.78V167.93h2.17v10.78ZM212.51,164v2.62h-5.64V164Z"/><path class="cls-14" d="M140,151.93h8.25V134.61H140Zm1.31-12.08h2.16v10.77h-2.16Zm3.47,10.77V139.85H147v10.77Zm2.17-14.7v2.62h-5.64v-2.62Z"/><path class="cls-14" d="M156.58,151.93h8.25V134.61h-8.25Zm1.31-12.08h2.16v10.77h-2.16Zm3.47,10.77V139.85h2.17v10.77Zm2.17-14.7v2.62h-5.64v-2.62Z"/><path class="cls-14" d="M172.93,151.93h8.26V134.61h-8.26Zm1.31-12.08h2.17v10.77h-2.17Zm3.48,10.77V139.85h2.16v10.77Zm2.16-14.7v2.62h-5.64v-2.62Z"/><path class="cls-14" d="M188.94,151.93h8.26V134.61h-8.26Zm1.31-12.08h2.17v10.77h-2.17Zm3.48,10.77V139.85h2.16v10.77Zm2.16-14.7v2.62h-5.64v-2.62Z"/><path class="cls-14" d="M205.56,151.93h8.25V134.61h-8.25Zm1.31-12.08H209v10.77h-2.16Zm3.47,10.77V139.85h2.17v10.77Zm2.17-14.7v2.62h-5.64v-2.62Z"/><path class="cls-16" d="M132.52,121v-8.11h-7.58V121Zm-1.31-1.31h-1.83v-5.49h1.83Zm-5-5.49h1.83v5.49h-1.83Z"/><path class="cls-16" d="M147.92,112.86h-7.57V121h7.57Zm-6.26,1.31h1.82v5.49h-1.82Zm5,5.49h-1.83v-5.49h1.83Z"/><path class="cls-16" d="M164.15,112.86h-7.57V121h7.57Zm-6.26,1.31h1.82v5.49h-1.82Zm5,5.49H161v-5.49h1.83Z"/><path class="cls-16" d="M180.85,112.86h-7.58V121h7.58Zm-6.27,1.31h1.83v5.49h-1.83Zm5,5.49h-1.82v-5.49h1.82Z"/><path class="cls-16" d="M196.86,112.86h-7.58V121h7.58Zm-6.27,1.31h1.83v5.49h-1.83Zm5,5.49h-1.82v-5.49h1.82Z"/><path class="cls-16" d="M213.47,112.86H205.9V121h7.57Zm-6.26,1.31H209v5.49h-1.82Zm5,5.49h-1.83v-5.49h1.83Z"/><path class="cls-17" d="M244.06,141.18h-7.58v8.11h7.58Zm-6.27,1.31h1.82V148h-1.82Zm5,5.49h-1.83v-5.49h1.83Z"/><path class="cls-17" d="M269.2,141.18h-7.57v8.11h7.57Zm-6.26,1.31h1.82V148h-1.82Zm5,5.49h-1.83v-5.49h1.83Z"/><path class="cls-17" d="M295,141.18h-7.58v8.11H295Zm-6.27,1.31h1.83V148h-1.83Zm5,5.49h-1.83v-5.49h1.83Z"/><path class="cls-18" d="M422.27,110.47V105.6H307v-3.16h-82.4v3.16H109.41v4.87h3.71v13.34h-3.71v4.86h3.71v28h-3.71v4.87h3.71v19.65h-3.71v4.87h3.71v8.17h89.32l-5.33,9.18H336.74l-4.91-9.18h86.73v-8.17h3.71v-4.87h-3.71V161.53h3.71v-4.87h-3.71v-28h3.71v-4.86h-3.71V110.47ZM421,106.91v2.25H307v-2.25Zm-7.33,49.75H314v-28h99.59Zm-100.9-28v56.84h-2.19V139.85h1.75V133h-7.65v6.9h1.51v45.66H304V186H227.25v-.53h-2.12V139.85h2.12V133H219.6v6.9h1.51v45.66H219V125.12h5.69V126H307v-.83h5.69v3.55Zm100.9,52.51H314V161.53h99.59Zm-83.55,6.58v4h-1.32v-4Zm-2.63,4h-1.32v-4h1.32Zm-121.89-4v4h-1.33v-4Zm-2.64,4H201.6v-4h1.32Zm4.1,2.5-2.52,4.34H329.72l-2.33-4.34h.74l2.92,5.45H203.14l3.17-5.45Zm118.89,0,1.62,3H206.77l1.77-3H219V191.8h8.3v-1.4H304v1.4h8.75v2.42Zm-107-7.4h7v3.68h-7Zm3.47-47h1.41v45.66h-1.41Zm-1.31-1.31h-.2v-4.28h5v4.28h-4.83Zm6.14,48.81H304v.28H227.25Zm0,1.58H304v.16H227.25Zm80.21-49.08h1.77v45.66h-1.77Zm-1.31-1.31H306v-4.28h5v4.28h-4.83Zm4.39,48.28h2.19v3.68h-7.44v-3.68h5.25ZM118.06,161.53h99.58v19.65H118.06Zm0-32.86h99.58v28H118.06Zm106.58-4.86H118.06V110.47H224.64Zm88.09,0H307V110.47H413.63v13.34H312.73ZM226,103.75h79.78v20.9H226v-20.9Zm-115.23,5.41v-2.25H224.64v2.25H110.72Zm3.71,1.31h2.32v13.34h-2.32Zm-3.71,16.89v-2.24H217.64v2.24H110.72Zm3.71,1.31h2.32v28h-2.32Zm-3.71,31.55V158H217.64v2.25H110.72Zm3.71,1.31h2.32v19.65h-2.32Zm-3.71,23.21v-2.25H217.64v2.25H110.72Zm6,8.17h-2.32v-6.86h2.32Zm1.31-6.86h99.58v6.86H206.87v-6.45h-6.58v6.45h-10v-6.45h-6.57v6.45h-9.1v-6.45H168v6.45H158.6v-6.45H152v6.45h-9v-6.45h-6.58v6.45H118.06Zm70.88,1.71v4h-1.32v-4Zm-2.63,4H185v-4h1.33Zm-13-4v4H172v-4Zm-2.63,4h-1.33v-4h1.33Zm-13.35-4v4H156v-4Zm-2.63,4h-1.33v-4h1.33Zm-13-4v4h-1.33v-4Zm-2.63,4h-1.33v-4h1.33Zm195.5,10.37H199.38l4.57-7.87h.84L200.87,201H333.23l-3.62-6.76h.74Zm12.14-14.33v4h-1.33v-4Zm-2.63,4h-1.33v-4h1.33Zm18.3-4v4H361v-4Zm-2.64,4h-1.32v-4h1.32Zm18.62-4v4H377v-4Zm-2.63,4h-1.33v-4h1.33Zm18.23-4v4h-1.32v-4Zm-2.63,4H390v-4h1.33Zm3.94,1.19v-6.45h-6.57v6.45h-9v-6.45h-6.58v6.45h-9.4v-6.45H357.1v6.45H348v-6.45h-6.58v6.45h-10v-6.45h-6.57v6.45H314v-6.86h99.59v6.86Zm22,0h-2.32v-6.86h2.32ZM421,182.49v2.25H314v-2.25H421Zm-3.71-1.31h-2.32V161.53h2.32ZM421,158v2.25H314V158H421Zm-3.71-1.31h-2.32v-28h2.32ZM421,125.12v2.24H314v-2.24H421Zm-3.71-1.31h-2.32V110.47h2.32Z"/><path class="cls-14" d="M407.08,134.61h-8.26v17.32h8.26Zm-1.31,1.31v2.62h-5.64v-2.62Zm-5.64,3.93h2.17v10.77h-2.17Zm3.48,10.77V139.85h2.16v10.77Z"/><path class="cls-15" d="M407.08,162.7h-8.26V180h8.26Zm-1.31,1.3v2.62h-5.64V164Zm-5.64,3.93h2.17v10.78h-2.17Zm3.48,10.78V167.93h2.16v10.78Z"/><path class="cls-15" d="M391.67,162.7h-8.25V180h8.25Zm-1.3,1.3v2.62h-5.64V164Zm-5.64,3.93h2.16v10.78h-2.16Zm3.47,10.78V167.93h2.17v10.78Z"/><path class="cls-15" d="M375.1,162.7h-8.25V180h8.25Zm-1.3,1.3v2.62h-5.64V164Zm-5.64,3.93h2.16v10.78h-2.16Zm3.47,10.78V167.93h2.17v10.78Z"/><path class="cls-15" d="M358.75,162.7h-8.26V180h8.26Zm-1.31,1.3v2.62H351.8V164Zm-5.64,3.93H354v10.78H351.8Zm3.47,10.78V167.93h2.17v10.78Z"/><path class="cls-15" d="M342.74,162.7h-8.26V180h8.26Zm-1.31,1.3v2.62h-5.64V164Zm-5.64,3.93H338v10.78h-2.17Zm3.47,10.78V167.93h2.17v10.78Z"/><path class="cls-15" d="M326.13,162.7h-8.26V180h8.26Zm-1.31,1.3v2.62h-5.64V164Zm-5.64,3.93h2.16v10.78h-2.16Zm3.47,10.78V167.93h2.17v10.78Z"/><path class="cls-14" d="M391.67,134.61h-8.25v17.32h8.25Zm-1.3,1.31v2.62h-5.64v-2.62Zm-5.64,3.93h2.16v10.77h-2.16Zm3.47,10.77V139.85h2.17v10.77Z"/><path class="cls-14" d="M375.1,134.61h-8.25v17.32h8.25Zm-1.3,1.31v2.62h-5.64v-2.62Zm-5.64,3.93h2.16v10.77h-2.16Zm3.47,10.77V139.85h2.17v10.77Z"/><path class="cls-14" d="M358.75,134.61h-8.26v17.32h8.26Zm-1.31,1.31v2.62H351.8v-2.62Zm-5.64,3.93H354v10.77H351.8Zm3.47,10.77V139.85h2.17v10.77Z"/><path class="cls-14" d="M342.74,134.61h-8.26v17.32h8.26Zm-1.31,1.31v2.62h-5.64v-2.62Zm-5.64,3.93H338v10.77h-2.17Zm3.47,10.77V139.85h2.17v10.77Z"/><path class="cls-14" d="M326.13,134.61h-8.26v17.32h8.26Zm-1.31,1.31v2.62h-5.64v-2.62Zm-5.64,3.93h2.16v10.77h-2.16Zm3.47,10.77V139.85h2.17v10.77Z"/><path class="cls-16" d="M399.16,112.86V121h7.58v-8.11Zm1.31,1.31h1.83v5.49h-1.83Zm5,5.49h-1.82v-5.49h1.82Z"/><path class="cls-16" d="M383.76,121h7.57v-8.11h-7.57Zm6.27-1.31H388.2v-5.49H390Zm-5-5.49h1.82v5.49h-1.82Z"/><path class="cls-16" d="M367.53,121h7.57v-8.11h-7.57Zm6.27-1.31H372v-5.49h1.83Zm-5-5.49h1.82v5.49h-1.82Z"/><path class="cls-16" d="M350.83,121h7.58v-8.11h-7.58Zm6.27-1.31h-1.83v-5.49h1.83Zm-5-5.49H354v5.49h-1.83Z"/><path class="cls-16" d="M334.82,121h7.58v-8.11h-7.58Zm6.27-1.31h-1.83v-5.49h1.83Zm-5-5.49H338v5.49h-1.83Z"/><path class="cls-16" d="M318.21,121h7.58v-8.11h-7.58Zm6.27-1.31h-1.83v-5.49h1.83Zm-5-5.49h1.82v5.49h-1.82Z"/><path class="cls-19" d="M275.13,107.38H254.8v12.23h20.33Zm-1.3,10.92H256.1v-9.61h17.73Z"/><path class="cls-20" d="M296.18,139.85h1.51V185h4.63V139.85h1.51V133h-7.65ZM301,183.7h-2V139.85h2Zm-3.53-49.44h5v4.28h-5Z"/><path class="cls-20" d="M278.51,139.85H280V185h4.63V139.85h1.5V133h-7.64Zm4.83,43.85h-2V139.85h2Zm-3.52-49.44h5v4.28h-5Z"/><path class="cls-20" d="M270.05,139.85h1.51V185h4.63V139.85h1.51V133h-7.65Zm4.83,43.85h-2V139.85h2Zm-3.52-49.44h5v4.28h-5Z"/><path class="cls-20" d="M253.13,139.85h1.51V185h4.63V139.85h1.51V133h-7.65ZM258,183.7h-2V139.85h2Zm-3.53-49.44h5v4.28h-5Z"/><path class="cls-20" d="M244.68,139.85h1.66V185H251V139.85h1.35V133h-7.64Zm5,43.85h-2V139.85h2ZM246,134.26h5v4.28h-5Z"/><path class="cls-20" d="M228.06,139.85h1.51V185h4.63V139.85h1.51V133h-7.65Zm4.83,43.85h-2V139.85h2Zm-3.52-49.44h5v4.28h-5Z"/><path class="cls-21" d="M236.09,182.49h8.35V165.73h-8.35Zm1.31-1.31v-4.4h5.74v4.4Zm5.74-5.71h-2.22V167h2.22ZM239.61,167v8.44H237.4V167Z"/><path class="cls-21" d="M261.24,182.49h8.35V165.73h-8.35Zm1.31-1.31v-4.4h5.73v4.4Zm5.73-5.71h-2.21V167h2.21ZM264.76,167v8.44h-2.21V167Z"/><path class="cls-21" d="M287,182.49h8.36V165.73H287Zm1.31-1.31v-4.4H294v4.4Zm5.74-5.71h-2.22V167H294ZM290.52,167v8.44H288.3V167Z"/><path class="cls-22" d="M1008.2,526.41l0-66.85,66.85,0,0,66.86Zm3.89-62.93,0,59,59,0,0-59Z"/><rect class="cls-1" x="1012.09" y="463.48" width="59.03" height="58.98"/><path class="cls-23" d="M1061.29,481.36c.12.15.19.21-.18.61s-.4.14-.72,0-.74.06-.9,0-.24-.24-.33-.28a4.71,4.71,0,0,0-1.77.28c-.41.09-.93.37-1.34.47a4.1,4.1,0,0,1-1.67-.09,3.08,3.08,0,0,1-1.17-.22c-.55-.25-1.38,0-1.93-.1-.25-.05-.41-.24-.64-.22a9.7,9.7,0,0,0-1.62.55,5.16,5.16,0,0,1-2.11,0c-.38,0-.8,0-1.19,0-.23,0-.57.13-.79.1-.37,0-.63-.23-1-.28a7.18,7.18,0,0,0-2-.2c-.36,0-.81.25-1.14.27s-.3-.11-.5-.11c-.38,0-.91.06-1.36.07a6.81,6.81,0,0,1-.9.09c-.3-.05-.43-.28-.71-.29a5.44,5.44,0,0,0-1.16.26,5.06,5.06,0,0,1-1.18.31c-.23,0-.39-.37-.57-.41-.38-.09-1.18.57-1.54.39a.38.38,0,0,1-.08-.61c.3-.37.39,0,.59,0a3.61,3.61,0,0,0,.79-.34,2.18,2.18,0,0,1,.74-.22c.27,0,.36.35.65.4s.63-.25.89-.33a8.16,8.16,0,0,1,1.32-.27c.29,0,.48.19.79.29s.6-.12.94-.13l1.24,0c.22,0,.38.13.59.11.37,0,.8-.19,1.17-.24a7.53,7.53,0,0,1,2.09.15c.35.06.61.24,1,.29s.64,0,1,0a6.26,6.26,0,0,1,1.22,0,4,4,0,0,0,1.38,0c.56-.08,1.45-.64,2-.68.28,0,.37.15.65.24a3.18,3.18,0,0,0,1,.06,2.92,2.92,0,0,1,.93,0,4.66,4.66,0,0,0,1.24.28,4.82,4.82,0,0,0,1.47.09c.25,0,.58-.2.85-.28a6.5,6.5,0,0,1,2.39-.52c.23,0,.27.25.46.3s.62-.11.86,0A.78.78,0,0,1,1061.29,481.36Z"/><path class="cls-24" d="M1061.29,484.49c.12.14.19.21-.18.61s-.4.13-.72,0-.74.06-.9,0-.24-.24-.33-.28a4.71,4.71,0,0,0-1.77.28c-.41.09-.93.37-1.34.47a4.3,4.3,0,0,1-1.67-.09,3.09,3.09,0,0,1-1.17-.23c-.55-.24-1.37,0-1.93-.09-.25-.06-.4-.25-.64-.23a10.81,10.81,0,0,0-1.62.56,5.16,5.16,0,0,1-2.11,0c-.37,0-.8,0-1.19,0-.23,0-.57.13-.79.1s-.63-.23-1-.28a6.91,6.91,0,0,0-2.06-.2c-.36.05-.81.25-1.14.27s-.3-.11-.5-.11c-.38,0-.91.05-1.36.07a6.81,6.81,0,0,1-.9.09c-.3-.05-.43-.29-.71-.29a6.06,6.06,0,0,0-1.16.25,4.65,4.65,0,0,1-1.17.31c-.24,0-.4-.36-.58-.4-.38-.09-1.18.56-1.54.39a.38.38,0,0,1-.08-.61c.3-.37.39,0,.59,0a4.17,4.17,0,0,0,.79-.34,2,2,0,0,1,.74-.22c.28,0,.36.34.65.39s.63-.25.89-.32a8.16,8.16,0,0,1,1.32-.27c.29,0,.48.19.8.29s.59-.12.93-.13l1.24,0c.22,0,.38.13.59.11.37,0,.8-.2,1.17-.24a7.26,7.26,0,0,1,2.1.15c.34.06.6.24,1,.28s.64,0,1,0a7.14,7.14,0,0,1,1.22,0,3.74,3.74,0,0,0,1.38,0c.56-.08,1.45-.64,2-.68.28,0,.38.15.65.24a3.52,3.52,0,0,0,1,.06,2.92,2.92,0,0,1,.93,0,5.08,5.08,0,0,0,1.24.28,4.52,4.52,0,0,0,1.47.08c.25,0,.58-.19.85-.27a6.3,6.3,0,0,1,2.39-.52c.23,0,.27.25.46.3s.62-.12.86,0A.78.78,0,0,1,1061.29,484.49Z"/><path class="cls-25" d="M1061.29,487.8c.13.15.19.21-.18.61s-.4.14-.72,0-.74.06-.9,0-.23-.24-.33-.27a4.4,4.4,0,0,0-1.76.27c-.42.09-.94.37-1.35.48a4.24,4.24,0,0,1-1.66-.1,3.1,3.1,0,0,1-1.18-.22c-.55-.24-1.37,0-1.93-.09-.25-.06-.4-.25-.64-.23a10.7,10.7,0,0,0-1.62.55,5.16,5.16,0,0,1-2.11,0c-.37,0-.8,0-1.19,0-.23,0-.57.14-.79.1s-.63-.23-1-.28a7.59,7.59,0,0,0-2.06-.2c-.36.05-.81.25-1.14.27s-.3-.11-.49-.11c-.39,0-.92.06-1.37.08a6.6,6.6,0,0,1-.9.08c-.29,0-.42-.28-.71-.28a4.77,4.77,0,0,0-1.15.25,4.82,4.82,0,0,1-1.18.31c-.23,0-.4-.37-.58-.41-.38-.08-1.18.57-1.54.39a.38.38,0,0,1-.08-.6c.31-.37.39,0,.59,0a3.61,3.61,0,0,0,.79-.34,2,2,0,0,1,.74-.21c.28,0,.36.34.65.39s.63-.25.89-.32a6.59,6.59,0,0,1,1.32-.27c.29,0,.48.18.8.28s.59-.12.93-.13l1.24,0c.22,0,.39.13.59.11.37,0,.8-.19,1.18-.24a7.59,7.59,0,0,1,2.09.15c.34.06.61.25,1,.29s.64,0,1,0a6.16,6.16,0,0,1,1.21,0,4,4,0,0,0,1.38,0c.57-.07,1.45-.64,2-.68.28,0,.38.15.66.24a3.43,3.43,0,0,0,1,.07,3.23,3.23,0,0,1,.93,0,4.66,4.66,0,0,0,1.24.28,4.82,4.82,0,0,0,1.47.09c.25,0,.58-.19.86-.28a6.66,6.66,0,0,1,2.38-.52c.24,0,.27.26.46.31s.62-.12.86-.05A.78.78,0,0,1,1061.29,487.8Z"/><path class="cls-26" d="M1028.37,476.64a.14.14,0,0,1,.13,0c0,.18-.15.27-.23.39-.5.7-1,1.41-1.49,2.2-.13.21-.32.42-.42.62s-.18.53-.32.79-.28.45-.39.7a7.52,7.52,0,0,0,1.07,0c0-.09-.1-.42,0-.52s.2.31.32.44c.88-.22,1.08.66.08.5.13,1.2-.12,2.5,0,3.74a2.45,2.45,0,0,1,.08.29c0,.22,0,.45,0,.68.07.61.11,1.26.16,1.85.37,0,.7,0,.73.24.06.44-.59.23-.91.39a4.76,4.76,0,0,0-1.39-.08c-1.19,0-2.31.11-3.61.06-.44,0-.87,0-1.2,0s-.79-.18-1.07,0c-.3-.12-.83,0-1-.24.07-.23.44-.17.71-.21,0-2.21.12-4.52,0-6.59-.61.08-.75-.47-.08-.44.07-.13-.07-.34.11-.39s.25.2.28.39c.54,0,1,0,1.52,0a9.36,9.36,0,0,0-.39-1.12c-.15-.36-.41-.74-.32-1.13a1.15,1.15,0,0,1,.55.58c.3.49.45,1.15.71,1.67a11.61,11.61,0,0,0,2.43,0,12.57,12.57,0,0,1,1.49-2.43,8.85,8.85,0,0,1,1.88-2C1028,476.9,1028.22,476.85,1028.37,476.64Zm-3,5.34a13.19,13.19,0,0,0-.94,2.4c-.11.4-.18.85-.29,1.39-.06.27-.25,1.06-.55,1.12a.76.76,0,0,1-.73-.28,2.78,2.78,0,0,1-.16-.66c-.3-1.3-.63-2.87-1-4H1020c.2,2,.07,4.35.16,6.46a18.25,18.25,0,0,0,2.8.08h1c.29,0,.56-.08.84-.11.7-.06,1.4.05,2.09,0a57.23,57.23,0,0,1-.19-6.48h-1.28S1025.36,482,1025.34,482Zm-2.22,3.27a31.3,31.3,0,0,1,1.07-3.27,7.12,7.12,0,0,1-2,0C1022.55,482.92,1022.85,484.13,1023.12,485.25Z"/><path class="cls-27" d="M1061.3,497c.12.14.19.21-.19.6s-.4.14-.72,0-.73.07-.89,0-.24-.24-.33-.28a4.45,4.45,0,0,0-1.77.27c-.42.1-.93.37-1.35.48a4.24,4.24,0,0,1-1.66-.1,3.13,3.13,0,0,1-1.18-.22c-.54-.24-1.37,0-1.93-.09-.24-.06-.4-.25-.63-.23a11.94,11.94,0,0,0-1.62.55,5,5,0,0,1-2.12,0c-.37,0-.8,0-1.18,0s-.58.13-.79.1c-.37-.06-.63-.24-1-.29a7.19,7.19,0,0,0-2-.19c-.36,0-.81.25-1.14.26s-.3-.1-.5-.11c-.39,0-.91.06-1.37.08a8.79,8.79,0,0,1-.9.09c-.29-.05-.42-.29-.7-.29a6.06,6.06,0,0,0-1.16.25,4.82,4.82,0,0,1-1.18.31c-.23,0-.4-.37-.57-.41-.39-.08-1.18.57-1.54.39a.37.37,0,0,1-.09-.6c.31-.37.4,0,.6,0s.54-.24.78-.33a2,2,0,0,1,.75-.22c.27,0,.35.34.64.39s.63-.25.9-.32a6.33,6.33,0,0,1,1.32-.27c.29,0,.48.18.79.29a6.69,6.69,0,0,0,.94-.14l1.24,0c.22,0,.38.13.58.11.37,0,.81-.19,1.18-.23a7.22,7.22,0,0,1,2.09.15c.35.06.61.24,1,.28s.63,0,1,0a8.35,8.35,0,0,1,1.22,0,4,4,0,0,0,1.38,0c.56-.07,1.45-.64,2-.67.28,0,.37.15.65.24a3.89,3.89,0,0,0,1,.06,2.92,2.92,0,0,1,.93,0,5.81,5.81,0,0,0,1.25.28,4.8,4.8,0,0,0,1.47.08c.24-.05.57-.19.85-.28a6.71,6.71,0,0,1,2.39-.52c.23.05.27.26.45.31s.63-.12.86,0A.71.71,0,0,1,1061.3,497Z"/><path class="cls-28" d="M1061.3,500.16c.12.15.19.22-.19.61s-.4.14-.71,0-.74.06-.9,0-.24-.24-.33-.27a4.45,4.45,0,0,0-1.77.27c-.42.1-.93.37-1.35.48a4.24,4.24,0,0,1-1.66-.1,3,3,0,0,1-1.17-.22c-.55-.24-1.38,0-1.94-.09-.24-.06-.4-.25-.63-.23a11.94,11.94,0,0,0-1.62.55,5.21,5.21,0,0,1-2.12,0c-.37,0-.8,0-1.18,0s-.57.13-.79.09c-.37-.05-.63-.23-1-.28a7.19,7.19,0,0,0-2-.19c-.36,0-.81.24-1.14.26s-.3-.1-.5-.11c-.39,0-.91.06-1.37.08a6.47,6.47,0,0,1-.9.08c-.29,0-.42-.28-.7-.28a5.39,5.39,0,0,0-1.16.25,4.71,4.71,0,0,1-1.18.31c-.23,0-.4-.37-.57-.41-.39-.08-1.18.57-1.54.39a.37.37,0,0,1-.09-.6c.31-.37.4,0,.6,0a3.36,3.36,0,0,0,.78-.34,2,2,0,0,1,.75-.21c.27,0,.35.34.64.39s.63-.25.9-.32a6.33,6.33,0,0,1,1.32-.27c.29,0,.48.18.79.28s.6-.11.94-.13l1.24,0c.22,0,.38.13.59.11.36,0,.8-.19,1.17-.23a6.86,6.86,0,0,1,2.09.15c.35.05.61.24,1,.28s.63,0,1,0a8.35,8.35,0,0,1,1.22,0,4,4,0,0,0,1.38,0c.56-.07,1.45-.64,2-.68.28,0,.37.15.65.25a3.89,3.89,0,0,0,1,.06,3.3,3.3,0,0,1,.94,0,4.66,4.66,0,0,0,1.24.28,4.51,4.51,0,0,0,1.47.09c.25-.05.57-.19.85-.28a6.71,6.71,0,0,1,2.39-.52c.23.05.27.26.45.31s.63-.12.86,0A.76.76,0,0,1,1061.3,500.16Z"/><path class="cls-29" d="M1061.3,503.48c.12.14.19.21-.19.61s-.39.13-.71,0-.74.06-.9,0-.24-.24-.33-.28a4.32,4.32,0,0,0-1.77.28c-.41.09-.93.36-1.35.47a4.06,4.06,0,0,1-1.66-.1,3,3,0,0,1-1.17-.22c-.55-.24-1.38,0-1.94-.09-.24-.06-.4-.25-.63-.23a10.81,10.81,0,0,0-1.62.56,5.21,5.21,0,0,1-2.12,0c-.37,0-.8,0-1.18,0s-.57.13-.79.1c-.37-.06-.63-.24-1-.29a7.19,7.19,0,0,0-2-.19c-.36,0-.81.25-1.14.27s-.3-.11-.5-.12c-.38,0-.91.06-1.36.08s-.69.12-.9.09-.43-.29-.71-.29a6.06,6.06,0,0,0-1.16.25,4.6,4.6,0,0,1-1.18.31c-.23,0-.4-.36-.57-.4-.38-.09-1.18.56-1.54.39a.38.38,0,0,1-.08-.61c.3-.37.39,0,.59,0s.54-.24.78-.33a2.08,2.08,0,0,1,.75-.22c.27,0,.35.34.65.39s.63-.25.89-.32a6.33,6.33,0,0,1,1.32-.27c.29,0,.48.18.79.29s.6-.12.94-.13l1.24,0c.22,0,.38.12.59.11.37,0,.8-.2,1.17-.24a7.19,7.19,0,0,1,2.09.15c.35.06.61.24,1,.28s.63,0,1,0a8.35,8.35,0,0,1,1.22,0,3.75,3.75,0,0,0,1.38,0c.56-.07,1.45-.63,2-.67.28,0,.37.15.65.24a3.94,3.94,0,0,0,1,.06,2.93,2.93,0,0,1,.93,0,5.59,5.59,0,0,0,1.24.28,4.52,4.52,0,0,0,1.47.08c.25-.05.57-.19.85-.28a6.47,6.47,0,0,1,2.39-.51c.23,0,.27.25.45.3s.63-.12.87,0A.84.84,0,0,1,1061.3,503.48Z"/><path class="cls-30" d="M1028.38,492.31a.23.23,0,0,1,.13,0c0,.19-.15.27-.24.39-.5.7-1,1.42-1.49,2.2-.13.22-.31.42-.42.63s-.18.53-.31.78-.28.46-.39.71a9.23,9.23,0,0,0,1.07,0c0-.1-.1-.43,0-.53s.2.31.31.45c.89-.23,1.08.66.08.49.14,1.2-.12,2.51,0,3.74,0,.1.07.2.08.29s0,.46,0,.68c.07.61.11,1.27.16,1.86.37,0,.7,0,.73.23.05.45-.59.23-.92.4a4.34,4.34,0,0,0-1.38-.08c-1.19,0-2.31.11-3.61.05-.44,0-.88,0-1.2,0s-.8-.19-1.08,0c-.29-.11-.82,0-1-.23.07-.24.44-.18.71-.21-.06-2.22.11-4.53,0-6.59-.61.08-.76-.48-.08-.45.07-.13-.07-.34.1-.39s.25.2.29.39c.53,0,1,0,1.52,0a8.08,8.08,0,0,0-.4-1.13c-.14-.36-.4-.73-.31-1.12.25.08.42.36.55.57.29.49.44,1.15.71,1.68a11,11,0,0,0,2.43,0,12.1,12.1,0,0,1,1.49-2.43,8.38,8.38,0,0,1,1.88-2C1028,492.58,1028.23,492.52,1028.38,492.31Zm-3,5.34a14.41,14.41,0,0,0-.94,2.41c-.1.39-.17.84-.28,1.38-.06.28-.25,1.06-.55,1.13a.77.77,0,0,1-.73-.29,2.38,2.38,0,0,1-.16-.65c-.3-1.31-.63-2.87-1-4H1020c.19,2,.07,4.34.16,6.46a17,17,0,0,0,2.8.07h1c.3,0,.57-.08.84-.1.71-.07,1.4.05,2.09,0a55.15,55.15,0,0,1-.18-6.49h-1.28S1025.37,497.63,1025.34,497.65Zm-2.22,3.27c.24-1.2.74-2.16,1.07-3.27a6.77,6.77,0,0,1-2,0C1022.56,498.59,1022.86,499.81,1023.12,500.92Z"/></svg>