<svg id="Calque_1" data-name="Calque 1" xmlns="http://www.w3.org/2000/svg" xmlns:xlink="http://www.w3.org/1999/xlink" viewBox="0 0 1869 790.51"><defs><style>.cls-1{fill:url(#Dégradé_sans_nom_101);}.cls-2{fill:url(#Dégradé_sans_nom_101-2);}.cls-3{fill:url(#Dégradé_sans_nom_101-3);}.cls-4{fill:url(#Dégradé_sans_nom_101-4);}.cls-5{opacity:0.18;fill:url(#Dégradé_sans_nom_105);}.cls-6{fill:#fff;}.cls-7{fill:url(#Dégradé_sans_nom_101-5);}.cls-8{fill:#428ce1;opacity:0.2;}.cls-9{fill:url(#Dégradé_sans_nom_101-6);}.cls-10{fill:url(#Dégradé_sans_nom_101-7);}.cls-11{fill:url(#Dégradé_sans_nom_101-8);}</style><linearGradient id="Dégradé_sans_nom_101" x1="30.09" y1="435.5" x2="1710.76" y2="435.5" gradientUnits="userSpaceOnUse"><stop offset="0" stop-color="#428ce1"/><stop offset="0.23" stop-color="#00a6ef"/><stop offset="0.46" stop-color="#00beea"/><stop offset="0.74" stop-color="#00d2d5"/><stop offset="1" stop-color="#00e2b8"/></linearGradient><linearGradient id="Dégradé_sans_nom_101-2" x1="29.98" y1="518.38" x2="1710.79" y2="518.38" xlink:href="#Dégradé_sans_nom_101"/><linearGradient id="Dégradé_sans_nom_101-3" x1="30.02" y1="563.57" x2="1710.78" y2="563.57" xlink:href="#Dégradé_sans_nom_101"/><linearGradient id="Dégradé_sans_nom_101-4" x1="29.98" y1="469.27" x2="1710.78" y2="469.27" xlink:href="#Dégradé_sans_nom_101"/><linearGradient id="Dégradé_sans_nom_105" x1="939.94" y1="581.91" x2="939.94" y2="780.22" gradientUnits="userSpaceOnUse"><stop offset="0" stop-color="#428ce1"/><stop offset="1" stop-color="#428ce1" stop-opacity="0"/></linearGradient><linearGradient id="Dégradé_sans_nom_101-5" x1="29.97" y1="539.1" x2="1710.78" y2="539.1" xlink:href="#Dégradé_sans_nom_101"/><linearGradient id="Dégradé_sans_nom_101-6" x1="29.97" y1="562.04" x2="1710.78" y2="562.04" xlink:href="#Dégradé_sans_nom_101"/><linearGradient id="Dégradé_sans_nom_101-7" x1="29.97" y1="560.8" x2="1710.78" y2="560.8" xlink:href="#Dégradé_sans_nom_101"/><linearGradient id="Dégradé_sans_nom_101-8" x1="29.97" y1="603.68" x2="1709.46" y2="603.68" xlink:href="#Dégradé_sans_nom_101"/></defs><title>img_8</title><path class="cls-1" d="M1529.26,439.6l-.52-1.15-3.24-7.27a4.6,4.6,0,0,0-4.19-2.7h-81.6a4.57,4.57,0,0,0-4.18,2.7l-3.24,7.24-.53,1.18a4.56,4.56,0,0,0-.26,2.93.55.55,0,0,1,.45-.19l97.13,0a.65.65,0,0,1,.45.16A4.56,4.56,0,0,0,1529.26,439.6Zm-3.63,2.22a.67.67,0,0,1-.55.29H1436a.66.66,0,0,1-.55-.29.61.61,0,0,1-.05-.63l1.25-2.77,2.51-5.62a.67.67,0,0,1,.6-.4h81.6a.66.66,0,0,1,.6.4l2.54,5.65,1.23,2.74A.61.61,0,0,1,1525.63,441.82Z"/><path class="cls-2" d="M1526.49,491.77a4.2,4.2,0,0,0-1-1.07,4.5,4.5,0,0,0-2.8-1,4,4,0,0,0-1.44.26c-1.59.63-3.22,1.18-4.84,1.7s-3,.86-4.47,1.25c-.76.21-1.52.4-2.3.58-1.54.37-3.09.68-4.63.94-.47.11-1,.18-1.44.26s-1.18.19-1.75.29-.94.13-1.44.18c-.76.11-1.54.21-2.3.29-2.3.29-4.63.47-6.91.58-.75,0-1.51.07-2.27.1-4,.13-7.85.08-11.59-.1l-2.61-.16c-3.79-.26-7.43-.65-10.88-1.13-1-.13-1.94-.26-2.88-.41l-.52-.08-3.25-.55c-3.81-.68-7.32-1.44-10.35-2.17-.58-.13-1.13-.26-1.68-.42-2.22-.55-4.15-1.07-5.75-1.54a4.61,4.61,0,0,0-4.24.91,4.18,4.18,0,0,0-.91,1.1,4.44,4.44,0,0,0-.66,2.93l5.21,42.92a4.66,4.66,0,0,0,1.36,2.74,4.3,4.3,0,0,0,1.62,1c.63.24,1.41.5,2.3.79,0,0,0,0,.05,0,.42.14.87.27,1.34.4.89.26,1.85.55,3,.83.5.13,1,.26,1.57.42s1.34.32,2,.47a129.24,129.24,0,0,0,29.4,3.22c3.38,0,7-.17,10.7-.43l.85-.06c1.35-.11,2.69-.22,4.08-.37q2.46-.25,5-.6l2.65-.39c2.17-.33,4.36-.69,6.6-1.13l.58-.11c1.36-.28,2.72-.57,4.1-.89a.93.93,0,0,0,.29,0,.44.44,0,0,1,.16,0c1.1-.24,2.2-.5,3.32-.79h1.52l5.93-47.62A4.45,4.45,0,0,0,1526.49,491.77ZM1517.76,539c-1.18.29-2.36.55-3.51.82l-2.77.57c-1.39.29-2.75.55-4.08.79l-3.77.6c-1,.15-2,.28-3,.39s-1.93.29-2.88.37c-1.72.18-3.42.33-5.07.47a132.35,132.35,0,0,1-14.38.41c-1,0-2.07,0-3.09-.1-2-.08-4-.21-5.86-.39a110.13,110.13,0,0,1-24.27-4.68c-.76-.27-1.44-.47-2-.68a.66.66,0,0,1-.41-.55l-5.24-42.92a.66.66,0,0,1,.24-.58.73.73,0,0,1,.42-.15.47.47,0,0,1,.16,0c2.17.63,4.94,1.39,8.21,2.15.78.18,1.59.39,2.43.57.47.08.94.19,1.41.29l1.49.31c2,.42,4.11.81,6.31,1.18,1.93.33,3.95.62,6,.89h0a154.72,154.72,0,0,0,19.89,1.37h.63c1.83,0,3.67-.05,5.53-.13l.64,0c2.06-.1,4.13-.24,6.21-.45.87-.1,1.73-.2,2.62-.28.71-.11,1.39-.19,2.09-.29,2.93-.42,5.89-1,8.79-1.65.81-.18,1.62-.36,2.41-.57,2.4-.63,4.78-1.34,7.14-2.17l2.35-.87a.58.58,0,0,1,.6.11.61.61,0,0,1,.24.6Z"/><path class="cls-3" d="M1520.79,542.51a4.19,4.19,0,0,0-1.23-1.93,4.81,4.81,0,0,0-4.13-1.08l-1.18.27-2.77.57c-1.39.29-2.75.55-4.08.79l-3.77.6c-1,.15-2,.28-3,.39s-1.93.26-2.88.37c-1.72.18-3.42.33-5.07.47-5.13.39-9.94.49-14.38.41-1,0-2.1-.07-3.09-.1-2-.11-4-.24-5.86-.39a112.85,112.85,0,0,1-23.95-4.61,1.83,1.83,0,0,0-.32-.07,4.55,4.55,0,0,0-4,.91,5.43,5.43,0,0,0-1,1.07,4.64,4.64,0,0,0-.66,3l4.74,39.13.89.49a21.34,21.34,0,0,0,2.3,1.1c7.53,3.22,19.9,5.15,33.08,5.15s25.56-1.93,33.06-5.15c.63-.26,1.2-.52,1.75-.81l1-.47,4.76-38.1A4.44,4.44,0,0,0,1520.79,542.51Zm-8.16,37.56-.58.23c-7.06,3-18.85,4.84-31.54,4.84s-24.48-1.8-31.54-4.84c-.36-.15-.73-.31-1.07-.49l-4.52-37.09a.61.61,0,0,1,.23-.57.58.58,0,0,1,.47-.16s0,0,.05,0,.06,0,.08,0c.39.14.81.27,1.26.4.89.26,1.85.55,3,.83.5.13,1,.26,1.57.42s1.34.32,2,.47c12.16,2.77,33,5.36,59.29.24l.58-.11c1.36-.28,2.72-.57,4.1-.89a.93.93,0,0,0,.29,0,.44.44,0,0,1,.16,0,.83.83,0,0,1,.47.18.7.7,0,0,1,.21.55Z"/><path class="cls-4" d="M1532.51,440a4.55,4.55,0,0,0-3.43-1.54h-4.63l-87.85,0H1432a4.58,4.58,0,0,0-4.55,5.13l5.49,45.32a4.66,4.66,0,0,0,1.36,2.72,4.58,4.58,0,0,0,1.83,1.1c.65.21,1.38.42,2.2.65,2.17.63,4.94,1.39,8.21,2.15.78.18,1.59.39,2.43.57.47.08.94.19,1.41.29l1.49.31c2,.42,4.11.81,6.31,1.18a162.42,162.42,0,0,0,26.28,2.28c4.16,0,8.4-.19,12.68-.61.87-.1,1.73-.2,2.62-.28.71-.11,1.39-.19,2.09-.29,2.93-.42,5.89-1,8.79-1.65.81-.18,1.62-.36,2.41-.57,2.4-.63,4.78-1.34,7.14-2.17l2.35-.87c.92-.34,1.83-.7,2.72-1.07a4.65,4.65,0,0,0,1.28-.84,4.5,4.5,0,0,0,1.47-2.85l5.67-45.32A4.54,4.54,0,0,0,1532.51,440Zm-2.78,3.11-5.64,45.33a.81.81,0,0,1-.42.57c-.79.34-1.6.65-2.41,1-1.59.63-3.22,1.18-4.84,1.7s-3,.89-4.47,1.25c-.76.24-1.54.42-2.3.58-1.54.37-3.09.68-4.63.94-.47.11-1,.18-1.44.26s-1.15.21-1.75.29-.94.13-1.44.18c-.76.13-1.54.21-2.3.29-2.3.29-4.63.47-6.91.58-.75,0-1.51.07-2.27.1-4,.13-7.85.08-11.59-.1l-2.61-.16c-3.79-.26-7.43-.65-10.88-1.13-1-.13-1.94-.26-2.88-.41l-.52-.08-3.25-.55c-3.81-.68-7.32-1.44-10.35-2.17-.58-.13-1.13-.26-1.68-.42-2.22-.55-4.15-1.07-5.75-1.54-.81-.24-1.54-.45-2.17-.66a.66.66,0,0,1-.45-.52l-5.49-45.32a.65.65,0,0,1,.16-.5s0-.05,0-.05a.55.55,0,0,1,.45-.19l97.13,0a.65.65,0,0,1,.45.16l0,.05a.62.62,0,0,1,.15.44Z"/><polygon class="cls-5" points="1847.65 768.92 140.81 768.92 32.22 626.73 32.22 580.62 1704.56 581.9 1847.65 768.92"/><rect class="cls-6" x="28.91" y="580.09" width="1678.22" height="44.02"/><rect class="cls-6" x="31.57" y="583.23" width="1670.98" height="41.54"/><path class="cls-7" d="M368.89,541.62h-21A3.5,3.5,0,0,0,348,541V519.76a3.59,3.59,0,0,0-.07-.65h8.94a4.58,4.58,0,0,0,4.58-4.58V500.72a4.58,4.58,0,0,0-4.58-4.57H156.45a4.58,4.58,0,0,0-4.57,4.57v13.81a4.76,4.76,0,0,0,.06.66H143a4.58,4.58,0,0,0-4.57,4.57V541a4.58,4.58,0,0,0,4.57,4.58h26.24a3.5,3.5,0,0,0-.07.65v31.28a4.58,4.58,0,0,0,4.58,4.57H368.89a4.58,4.58,0,0,0,4.57-4.57V546.2A4.58,4.58,0,0,0,368.89,541.62ZM155.8,514.53V500.72a.65.65,0,0,1,.65-.65H356.82a.66.66,0,0,1,.66.65v13.81a.67.67,0,0,1-.66.66H156.45A.66.66,0,0,1,155.8,514.53ZM142.35,541V519.76a.65.65,0,0,1,.65-.65H343.37a.66.66,0,0,1,.66.65V541a.66.66,0,0,1-.66.65H143A.65.65,0,0,1,142.35,541Zm227.19,36.51a.65.65,0,0,1-.65.65H173.75a.66.66,0,0,1-.66-.65V546.2a.66.66,0,0,1,.66-.65H368.89a.65.65,0,0,1,.65.65Z"/><rect class="cls-8" x="192.27" y="543.59" width="36.51" height="36.51"/><rect class="cls-8" x="162.48" y="517.15" width="26.44" height="26.44"/><rect class="cls-8" x="282.58" y="517.15" width="26.44" height="26.44"/><rect class="cls-8" x="210.52" y="498.11" width="50.2" height="19.04"/><rect class="cls-8" x="341.19" y="543.59" width="18.25" height="36.51"/><rect class="cls-8" x="316.69" y="543.59" width="18.25" height="36.51"/><path class="cls-9" d="M1296,581.87h-100.7v-2c0-20.79,22.59-37.71,50.35-37.71S1296,559.12,1296,579.91ZM1199.29,578H1292c-1.4-17.72-21.66-31.82-46.35-31.82S1200.69,560.23,1199.29,578Z"/><path class="cls-10" d="M1274.35,571.44c-5.67,0-10.85-2.73-21.21-8.19-2.09-1.1-4.39-2.31-7-3.65-23.67-12.23-37.22-.33-37.79.18l-2.65-2.89c.64-.59,16-14.32,42.24-.77,2.59,1.34,4.91,2.56,7,3.66,18.14,9.56,18.84,9.92,35,2.93l1.56,3.6C1283.64,569.73,1278.84,571.44,1274.35,571.44Z"/><path class="cls-11" d="M1702.55,628.7H32.22a4.58,4.58,0,0,1-4.57-4.58V583.23a4.58,4.58,0,0,1,4.57-4.57H1702.55a4.58,4.58,0,0,1,4.58,4.57v40.89A4.59,4.59,0,0,1,1702.55,628.7ZM32.22,582.58a.65.65,0,0,0-.65.65v40.89a.65.65,0,0,0,.65.65H1702.55a.65.65,0,0,0,.65-.65V583.23a.65.65,0,0,0-.65-.65Z"/></svg>