<svg id="Calque_1" data-name="Calque 1" xmlns="http://www.w3.org/2000/svg" xmlns:xlink="http://www.w3.org/1999/xlink" viewBox="0 0 1869 790.51"><defs><style>.cls-1{fill:url(#Dégradé_sans_nom_101);}.cls-2{clip-path:url(#clip-path);}</style><linearGradient id="Dégradé_sans_nom_101" x1="1411.76" y1="390.3" x2="1458.84" y2="390.3" gradientUnits="userSpaceOnUse"><stop offset="0" stop-color="#428ce1"/><stop offset="0.23" stop-color="#00a6ef"/><stop offset="0.46" stop-color="#00beea"/><stop offset="0.74" stop-color="#00d2d5"/><stop offset="1" stop-color="#00e2b8"/></linearGradient><clipPath id="clip-path"><path class="cls-1" d="M1448.6,365.8a21.4,21.4,0,0,1,3.3,5.83,31.74,31.74,0,0,1,1.84,6.51,25.22,25.22,0,0,1,.27,7,17.69,17.69,0,0,1-2.36,7,37.54,37.54,0,0,0-4.85,10.87,16.21,16.21,0,0,0,1.8,11.71,12.74,12.74,0,0,1-4.5-5.14,15.15,15.15,0,0,1-1.36-7,27.69,27.69,0,0,1,4.45-13.12c1.86-3,2.47-6.89,2.5-11A73.27,73.27,0,0,0,1448.6,365.8Z"/></clipPath></defs><title>img_4</title><path class="cls-1" d="M1448.6,365.8a21.4,21.4,0,0,1,3.3,5.83,31.74,31.74,0,0,1,1.84,6.51,25.22,25.22,0,0,1,.27,7,17.69,17.69,0,0,1-2.36,7,37.54,37.54,0,0,0-4.85,10.87,16.21,16.21,0,0,0,1.8,11.71,12.74,12.74,0,0,1-4.5-5.14,15.15,15.15,0,0,1-1.36-7,27.69,27.69,0,0,1,4.45-13.12c1.86-3,2.47-6.89,2.5-11A73.27,73.27,0,0,0,1448.6,365.8Z"/><g class="cls-2"><rect class="cls-1" x="1442.63" y="365.8" width="0.04" height="49"/><rect class="cls-1" x="1442.67" y="365.8" width="0.04" height="49"/><rect class="cls-1" x="1442.71" y="365.8" width="0.04" height="49"/><rect class="cls-1" x="1442.76" y="365.8" width="0.04" height="49"/><rect class="cls-1" x="1442.8" y="365.8" width="0.04" height="49"/><rect class="cls-1" x="1442.84" y="365.8" width="0.04" height="49"/><rect class="cls-1" x="1442.89" y="365.8" width="0.04" height="49"/><rect class="cls-1" x="1442.93" y="365.8" width="0.04" height="49"/><rect class="cls-1" x="1442.97" y="365.8" width="0.04" height="49"/><rect class="cls-1" x="1443.01" y="365.8" width="0.04" height="49"/><rect class="cls-1" x="1443.06" y="365.8" width="0.04" height="49"/><rect class="cls-1" x="1443.1" y="365.8" width="0.04" height="49"/><rect class="cls-1" x="1443.14" y="365.8" width="0.04" height="49"/><rect class="cls-1" x="1443.19" y="365.8" width="0.04" height="49"/><rect class="cls-1" x="1443.23" y="365.8" width="0.04" height="49"/><rect class="cls-1" x="1443.27" y="365.8" width="0.04" height="49"/><rect class="cls-1" x="1443.32" y="365.8" width="0.04" height="49"/><rect class="cls-1" x="1443.36" y="365.8" width="0.04" height="49"/><rect class="cls-1" x="1443.4" y="365.8" width="0.04" height="49"/><rect class="cls-1" x="1443.45" y="365.8" width="0.04" height="49"/><rect class="cls-1" x="1443.49" y="365.8" width="0.04" height="49"/><rect class="cls-1" x="1443.53" y="365.8" width="0.04" height="49"/><rect class="cls-1" x="1443.58" y="365.8" width="0.04" height="49"/><rect class="cls-1" x="1443.62" y="365.8" width="0.04" height="49"/><rect class="cls-1" x="1443.66" y="365.8" width="0.04" height="49"/><rect class="cls-1" x="1443.71" y="365.8" width="0.04" height="49"/><rect class="cls-1" x="1443.75" y="365.8" width="0.04" height="49"/><rect class="cls-1" x="1443.79" y="365.8" width="0.04" height="49"/><rect class="cls-1" x="1443.83" y="365.8" width="0.04" height="49"/><rect class="cls-1" x="1443.88" y="365.8" width="0.04" height="49"/><rect class="cls-1" x="1443.92" y="365.8" width="0.04" height="49"/><rect class="cls-1" x="1443.96" y="365.8" width="0.04" height="49"/><rect class="cls-1" x="1444.01" y="365.8" width="0.04" height="49"/><rect class="cls-1" x="1444.05" y="365.8" width="0.04" height="49"/><rect class="cls-1" x="1444.09" y="365.8" width="0.04" height="49"/><rect class="cls-1" x="1444.14" y="365.8" width="0.04" height="49"/><rect class="cls-1" x="1444.18" y="365.8" width="0.04" height="49"/><rect class="cls-1" x="1444.22" y="365.8" width="0.04" height="49"/><rect class="cls-1" x="1444.27" y="365.8" width="0.04" height="49"/><rect class="cls-1" x="1444.31" y="365.8" width="0.04" height="49"/><rect class="cls-1" x="1444.35" y="365.8" width="0.04" height="49"/><rect class="cls-1" x="1444.4" y="365.8" width="0.04" height="49"/><rect class="cls-1" x="1444.44" y="365.8" width="0.04" height="49"/><rect class="cls-1" x="1444.48" y="365.8" width="0.04" height="49"/><rect class="cls-1" x="1444.52" y="365.8" width="0.04" height="49"/><rect class="cls-1" x="1444.57" y="365.8" width="0.04" height="49"/><rect class="cls-1" x="1444.61" y="365.8" width="0.04" height="49"/><rect class="cls-1" x="1444.65" y="365.8" width="0.04" height="49"/><rect class="cls-1" x="1444.7" y="365.8" width="0.04" height="49"/><rect class="cls-1" x="1444.74" y="365.8" width="0.04" height="49"/><rect class="cls-1" x="1444.78" y="365.8" width="0.04" height="49"/><rect class="cls-1" x="1444.83" y="365.8" width="0.04" height="49"/><rect class="cls-1" x="1444.87" y="365.8" width="0.12" height="49"/><rect class="cls-1" x="1444.99" y="365.8" width="0.12" height="49"/><rect class="cls-1" x="1445.11" y="365.8" width="0.12" height="49"/><rect class="cls-1" x="1445.23" y="365.8" width="0.12" height="49"/><rect class="cls-1" x="1445.34" y="365.8" width="0.12" height="49"/><rect class="cls-1" x="1445.46" y="365.8" width="0.12" height="49"/><rect class="cls-1" x="1445.58" y="365.8" width="0.12" height="49"/><rect class="cls-1" x="1445.7" y="365.8" width="0.12" height="49"/><rect class="cls-1" x="1445.82" y="365.8" width="0.12" height="49"/><rect class="cls-1" x="1445.94" y="365.8" width="0.12" height="49"/><rect class="cls-1" x="1446.06" y="365.8" width="0.12" height="49"/><rect class="cls-1" x="1446.18" y="365.8" width="0.12" height="49"/><rect class="cls-1" x="1446.29" y="365.8" width="0.12" height="49"/><rect class="cls-1" x="1446.41" y="365.8" width="0.12" height="49"/><rect class="cls-1" x="1446.53" y="365.8" width="0.12" height="49"/><rect class="cls-1" x="1446.65" y="365.8" width="0.12" height="49"/><rect class="cls-1" x="1446.77" y="365.8" width="0.12" height="49"/><rect class="cls-1" x="1446.89" y="365.8" width="0.12" height="49"/><rect class="cls-1" x="1447.01" y="365.8" width="0.12" height="49"/><rect class="cls-1" x="1447.13" y="365.8" width="0.12" height="49"/><rect class="cls-1" x="1447.24" y="365.8" width="0.12" height="49"/><rect class="cls-1" x="1447.36" y="365.8" width="0.12" height="49"/><rect class="cls-1" x="1447.48" y="365.8" width="0.12" height="49"/><rect class="cls-1" x="1447.6" y="365.8" width="0.12" height="49"/><rect class="cls-1" x="1447.72" y="365.8" width="0.17" height="49"/><rect class="cls-1" x="1447.88" y="365.8" width="0.17" height="49"/><rect class="cls-1" x="1448.05" y="365.8" width="0.17" height="49"/><rect class="cls-1" x="1448.22" y="365.8" width="0.17" height="49"/><rect class="cls-1" x="1448.38" y="365.8" width="0.17" height="49"/><rect class="cls-1" x="1448.55" y="365.8" width="0.17" height="49"/><rect class="cls-1" x="1448.72" y="365.8" width="0.17" height="49"/><rect class="cls-1" x="1448.88" y="365.8" width="0.17" height="49"/><rect class="cls-1" x="1449.05" y="365.8" width="0.17" height="49"/><rect class="cls-1" x="1449.21" y="365.8" width="0.17" height="49"/><rect class="cls-1" x="1449.38" y="365.8" width="0.17" height="49"/><rect class="cls-1" x="1449.55" y="365.8" width="0.17" height="49"/><rect class="cls-1" x="1449.71" y="365.8" width="0.17" height="49"/><rect class="cls-1" x="1449.88" y="365.8" width="0.17" height="49"/><rect class="cls-1" x="1450.04" y="365.8" width="0.17" height="49"/><rect class="cls-1" x="1450.21" y="365.8" width="0.17" height="49"/><rect class="cls-1" x="1450.38" y="365.8" width="0.17" height="49"/><rect class="cls-1" x="1450.54" y="365.8" width="0.17" height="49"/><rect class="cls-1" x="1450.71" y="365.8" width="0.17" height="49"/><rect class="cls-1" x="1450.87" y="365.8" width="0.17" height="49"/><rect class="cls-1" x="1451.04" y="365.8" width="0.17" height="49"/><rect class="cls-1" x="1451.21" y="365.8" width="0.11" height="49"/><rect class="cls-1" x="1451.32" y="365.8" width="0.11" height="49"/><rect class="cls-1" x="1451.43" y="365.8" width="0.11" height="49"/><rect class="cls-1" x="1451.54" y="365.8" width="0.11" height="49"/><rect class="cls-1" x="1451.66" y="365.8" width="0.11" height="49"/><rect class="cls-1" x="1451.77" y="365.8" width="0.11" height="49"/><rect class="cls-1" x="1451.88" y="365.8" width="0.11" height="49"/><rect class="cls-1" x="1451.99" y="365.8" width="0.11" height="49"/><rect class="cls-1" x="1452.1" y="365.8" width="0.11" height="49"/><rect class="cls-1" x="1452.22" y="365.8" width="0.11" height="49"/><rect class="cls-1" x="1452.33" y="365.8" width="0.11" height="49"/><rect class="cls-1" x="1452.44" y="365.8" width="0.11" height="49"/><rect class="cls-1" x="1452.55" y="365.8" width="0.11" height="49"/><rect class="cls-1" x="1452.67" y="365.8" width="0.11" height="49"/><rect class="cls-1" x="1452.78" y="365.8" width="0.11" height="49"/><rect class="cls-1" x="1452.89" y="365.8" width="0.11" height="49"/><rect class="cls-1" x="1453" y="365.8" width="0.11" height="49"/><rect class="cls-1" x="1453.11" y="365.8" width="0.11" height="49"/><rect class="cls-1" x="1453.23" y="365.8" width="0.11" height="49"/><rect class="cls-1" x="1453.34" y="365.8" width="0.11" height="49"/><rect class="cls-1" x="1453.45" y="365.8" width="0.11" height="49"/><rect class="cls-1" x="1453.56" y="365.8" width="0.11" height="49"/><rect class="cls-1" x="1453.68" y="365.8" width="0.11" height="49"/><rect class="cls-1" x="1453.79" y="365.8" width="0.11" height="49"/><rect class="cls-1" x="1453.9" y="365.8" width="0.11" height="49"/><rect class="cls-1" x="1454.01" y="365.8" width="0.11" height="49"/><rect class="cls-1" x="1454.12" y="365.8" width="0.11" height="49"/><rect class="cls-1" x="1454.24" y="365.8" width="0.01" height="49"/></g></svg>