<?xml version="1.0" encoding="utf-8"?>
<!-- Generator: Adobe Illustrator 22.0.1, SVG Export Plug-In . SVG Version: 6.00 Build 0)  -->
<svg version="1.1" id="Calque_1" xmlns="http://www.w3.org/2000/svg" xmlns:xlink="http://www.w3.org/1999/xlink" x="0px" y="0px"
	 viewBox="0 0 1869 790.5" style="enable-background:new 0 0 1869 790.5;" xml:space="preserve">
<style type="text/css">
	.st0{fill:url(#SVGID_1_);}
	.st1{fill:url(#SVGID_2_);}
</style>
<title>img_6</title>
<linearGradient id="SVGID_1_" gradientUnits="userSpaceOnUse" x1="29.97" y1="346.265" x2="1700.47" y2="346.265" gradientTransform="matrix(1 0 0 -1 0 792)">
	<stop  offset="0" style="stop-color:#428CE1"/>
	<stop  offset="0.23" style="stop-color:#00A6EF"/>
	<stop  offset="0.46" style="stop-color:#00BEEA"/>
	<stop  offset="0.74" style="stop-color:#00D2D5"/>
	<stop  offset="1" style="stop-color:#00E2B8"/>
</linearGradient>
<path class="st0" d="M292.8,453.8c2-3.4,0.9-7.8-2.5-9.8c-1.1-0.6-2.3-1-3.6-1h-16.5l8.2-14.3c2-3.4,0.8-7.8-2.7-9.8
	c-1.1-0.6-2.3-0.9-3.5-0.9l0,0h-18.7c-4,0-7.1,3.2-7.1,7.2c0,1.3,0.3,2.5,1,3.6l8.2,14.1l-16.3-0.1c-2.6,0-4.9,1.3-6.2,3.5
	c-1.3,2.2-1.3,4.9-0.1,7.1l9.2,16.2c1.2,2.2,3.6,3.6,6.2,3.6h0.1c2.5,0,4.9-1.3,6.2-3.5l8.3-14.2l8.1,14.3c1.3,2.2,3.6,3.6,6.2,3.6
	l0,0c2.5,0,4.9-1.3,6.2-3.5L292.8,453.8L292.8,453.8z M259.7,447.2c0-0.4,0.1-0.9,0.2-1.3c0.1-0.3,0.3-0.5,0.4-0.7l0,0
	c0.6-0.8,1.6-1.3,2.6-1.3c1.1-0.1,2.1,0.5,2.6,1.3c0.1,0.2,0.3,0.4,0.4,0.6c0.1,0.4,0.2,0.8,0.2,1.1c0,1.7-1.2,3.1-2.9,3.3h-0.1
	c-0.2,0-0.5,0-0.7,0c-1.2-0.1-2.2-0.9-2.6-2.1C259.7,447.9,259.7,447.5,259.7,447.2L259.7,447.2z M249.7,422.9
	c0.8-1.4,2.3-2.3,3.9-2.3h18.7l0,0c2.5,0,4.5,2,4.5,4.5c0,0.8-0.2,1.6-0.6,2.3l-9,15.6c-1.1-1.2-2.6-1.9-4.3-1.9l0,0
	c-1.6,0-3.1,0.7-4.2,1.8h-0.1l-9-15.5C248.8,426.1,248.8,424.3,249.7,422.9L249.7,422.9z M252.3,468.4c-0.8,1.4-2.3,2.2-3.9,2.2
	c-1.6,0-3.1-0.9-3.9-2.3l-9.2-16.2c-1.2-2.2-0.5-4.9,1.7-6.2c0.7-0.4,1.5-0.6,2.2-0.6l0,0l17.9,0.1l0,0c-0.1,0.5-0.2,1-0.2,1.5
	c0,0.4,0,0.8,0.1,1.1c0.4,2.3,2.1,4.1,4.3,4.7l0,0L252.3,468.4z M290.6,452.5l-9.4,16.1c-0.8,1.4-2.3,2.3-3.9,2.2l0,0
	c-1.6,0-3.1-0.9-3.9-2.3l-8.9-15.7l0,0c2.6-0.6,4.5-3,4.5-5.7c0-0.1,0-0.3,0-0.4c0-0.4-0.1-0.7-0.1-1.1c0,0,0,0,0-0.1l18,0.1
	c2.5,0,4.5,2.1,4.5,4.6C291.2,451,291,451.8,290.6,452.5L290.6,452.5z"/>
<linearGradient id="SVGID_2_" gradientUnits="userSpaceOnUse" x1="233.3111" y1="447.0881" x2="445.5144" y2="447.0881">
	<stop  offset="0" style="stop-color:#428CE1"/>
	<stop  offset="0.23" style="stop-color:#00A6EF"/>
	<stop  offset="0.46" style="stop-color:#00BEEA"/>
	<stop  offset="0.74" style="stop-color:#00D2D5"/>
	<stop  offset="1" style="stop-color:#00E2B8"/>
</linearGradient>
<circle class="st1" cx="262.9" cy="447.1" r="3.9"/>
</svg>
