<svg id="Calque_1" data-name="Calque 1" xmlns="http://www.w3.org/2000/svg" xmlns:xlink="http://www.w3.org/1999/xlink" viewBox="0 0 1869 790.51"><defs><style>.cls-1{fill:url(#Dégradé_sans_nom_101);}.cls-2{fill:url(#Dégradé_sans_nom_101-2);}.cls-3{fill:url(#Dégradé_sans_nom_101-3);}.cls-4{fill:url(#Dégradé_sans_nom_101-6);}.cls-5{fill:url(#Dégradé_sans_nom_101-7);}</style><linearGradient id="Dégradé_sans_nom_101" x1="29.97" y1="144.83" x2="1710.78" y2="144.83" gradientUnits="userSpaceOnUse"><stop offset="0" stop-color="#428ce1"/><stop offset="0.23" stop-color="#00a6ef"/><stop offset="0.46" stop-color="#00beea"/><stop offset="0.74" stop-color="#00d2d5"/><stop offset="1" stop-color="#00e2b8"/></linearGradient><linearGradient id="Dégradé_sans_nom_101-2" x1="29.97" y1="34.46" x2="1710.78" y2="34.46" xlink:href="#Dégradé_sans_nom_101"/><linearGradient id="Dégradé_sans_nom_101-3" x1="29.97" y1="255.19" x2="1710.78" y2="255.19" xlink:href="#Dégradé_sans_nom_101"/><linearGradient id="Dégradé_sans_nom_101-6" x1="29.97" y1="188.47" x2="1710.78" y2="188.47" xlink:href="#Dégradé_sans_nom_101"/><linearGradient id="Dégradé_sans_nom_101-7" x1="29.97" y1="82.25" x2="1710.78" y2="82.25" xlink:href="#Dégradé_sans_nom_101"/></defs><title>img_1</title><path class="cls-1" d="M1669.62,21.12H1512.2a4.58,4.58,0,0,0-4.57,4.57V264a4.58,4.58,0,0,0,4.57,4.58h157.42a4.58,4.58,0,0,0,4.57-4.58V25.69A4.58,4.58,0,0,0,1669.62,21.12Zm.65,242.84a.66.66,0,0,1-.65.66H1512.2a.66.66,0,0,1-.65-.66V25.69a.65.65,0,0,1,.65-.65h157.42a.65.65,0,0,1,.65.65Z"/><path class="cls-2" d="M1521,28.74a5.73,5.73,0,1,0,5.72,5.72A5.73,5.73,0,0,0,1521,28.74Zm0,8.83a3.11,3.11,0,1,1,3.11-3.11A3.1,3.1,0,0,1,1521,37.57Z"/><path class="cls-3" d="M1521,249.47a5.72,5.72,0,1,0,5.72,5.72A5.73,5.73,0,0,0,1521,249.47Zm0,8.83a3.11,3.11,0,1,1,3.11-3.11A3.1,3.1,0,0,1,1521,258.3Z"/><path class="cls-3" d="M1660.29,249.47a5.72,5.72,0,1,0,5.73,5.72A5.73,5.73,0,0,0,1660.29,249.47Zm0,8.83a3.11,3.11,0,1,1,3.11-3.11A3.1,3.1,0,0,1,1660.29,258.3Z"/><path class="cls-2" d="M1660.29,28.74a5.73,5.73,0,1,0,5.73,5.72A5.73,5.73,0,0,0,1660.29,28.74Zm0,8.83a3.11,3.11,0,1,1,3.11-3.11A3.1,3.1,0,0,1,1660.29,37.57Z"/><path class="cls-4" d="M1644.64,130.16H1537.18a4.59,4.59,0,0,0-4.58,4.58V242.2a4.59,4.59,0,0,0,4.58,4.58h107.46a4.58,4.58,0,0,0,4.57-4.58V134.74A4.58,4.58,0,0,0,1644.64,130.16Zm-108.11,4.58a.65.65,0,0,1,.65-.65h32.74a58.57,58.57,0,0,0-33.39,33.39Zm54.38-.65a54.38,54.38,0,1,1-54.38,54.38A54.44,54.44,0,0,1,1590.91,134.09Zm-53.73,108.76a.65.65,0,0,1-.65-.65V209.46a58.57,58.57,0,0,0,33.39,33.39Zm108.11-.65a.65.65,0,0,1-.65.65H1611.9a58.57,58.57,0,0,0,33.39-33.39ZM1611.9,134.09h32.74a.65.65,0,0,1,.65.65v32.74A58.57,58.57,0,0,0,1611.9,134.09Z"/><path class="cls-5" d="M1590.91,117.12A34.87,34.87,0,1,0,1556,82.25,34.92,34.92,0,0,0,1590.91,117.12Zm0-65.81a30.94,30.94,0,1,1-31,30.94A31,31,0,0,1,1590.91,51.31Z"/></svg>