<?xml version="1.0" encoding="utf-8"?>
<!-- Generator: Adobe Illustrator 22.0.1, SVG Export Plug-In . SVG Version: 6.00 Build 0)  -->
<svg version="1.1" id="Calque_1" xmlns="http://www.w3.org/2000/svg" xmlns:xlink="http://www.w3.org/1999/xlink" x="0px" y="0px"
	 viewBox="0 0 1869 790.5" style="enable-background:new 0 0 1869 790.5;" xml:space="preserve">
<style type="text/css">
	.st0{clip-path:url(#SVGID_3_);fill:url(#SVGID_4_);}
	.st1{clip-path:url(#SVGID_3_);fill:url(#SVGID_5_);}
	.st2{clip-path:url(#SVGID_3_);fill:url(#SVGID_6_);}
	.st3{clip-path:url(#SVGID_3_);fill:url(#SVGID_7_);}
	.st4{clip-path:url(#SVGID_3_);fill:url(#SVGID_8_);}
	.st5{clip-path:url(#SVGID_3_);fill:url(#SVGID_9_);}
	.st6{clip-path:url(#SVGID_3_);fill:url(#SVGID_10_);}
	.st7{clip-path:url(#SVGID_3_);fill:url(#SVGID_11_);}
	.st8{clip-path:url(#SVGID_3_);fill:url(#SVGID_12_);}
	.st9{clip-path:url(#SVGID_3_);fill:url(#SVGID_13_);}
	.st10{clip-path:url(#SVGID_3_);fill:url(#SVGID_14_);}
	.st11{clip-path:url(#SVGID_3_);fill:url(#SVGID_15_);}
	.st12{clip-path:url(#SVGID_3_);fill:url(#SVGID_16_);}
	.st13{clip-path:url(#SVGID_3_);fill:url(#SVGID_17_);}
	.st14{clip-path:url(#SVGID_3_);fill:url(#SVGID_18_);}
	.st15{clip-path:url(#SVGID_3_);fill:url(#SVGID_19_);}
	.st16{clip-path:url(#SVGID_3_);fill:url(#SVGID_20_);}
	.st17{clip-path:url(#SVGID_3_);fill:url(#SVGID_21_);}
	.st18{clip-path:url(#SVGID_3_);fill:url(#SVGID_22_);}
	.st19{clip-path:url(#SVGID_3_);fill:url(#SVGID_23_);}
	.st20{clip-path:url(#SVGID_3_);fill:url(#SVGID_24_);}
	.st21{clip-path:url(#SVGID_3_);fill:url(#SVGID_25_);}
	.st22{clip-path:url(#SVGID_3_);fill:url(#SVGID_26_);}
	.st23{clip-path:url(#SVGID_3_);fill:url(#SVGID_27_);}
	.st24{clip-path:url(#SVGID_3_);fill:url(#SVGID_28_);}
	.st25{clip-path:url(#SVGID_3_);fill:url(#SVGID_29_);}
	.st26{clip-path:url(#SVGID_3_);fill:url(#SVGID_30_);}
	.st27{clip-path:url(#SVGID_3_);fill:url(#SVGID_31_);}
	.st28{clip-path:url(#SVGID_3_);fill:url(#SVGID_32_);}
	.st29{clip-path:url(#SVGID_3_);fill:url(#SVGID_33_);}
	.st30{clip-path:url(#SVGID_3_);fill:url(#SVGID_34_);}
	.st31{clip-path:url(#SVGID_3_);fill:url(#SVGID_35_);}
	.st32{clip-path:url(#SVGID_3_);fill:url(#SVGID_36_);}
	.st33{clip-path:url(#SVGID_3_);fill:url(#SVGID_37_);}
	.st34{clip-path:url(#SVGID_3_);fill:url(#SVGID_38_);}
	.st35{clip-path:url(#SVGID_3_);fill:url(#SVGID_39_);}
	.st36{fill:url(#SVGID_40_);}
</style>
<title>img_7</title>
<g>
	<g>
		<defs>
			<path id="SVGID_1_" d="M292.7,480.6l0.4-0.3c19.2-16.6,21.3-45.7,4.7-64.9s-45.7-21.3-64.9-4.7s-21.3,45.7-4.7,64.9
				c0.8,0.9,1.6,1.8,2.4,2.6l-8.1,18.3l-0.2,0.5l2.4,0.9l7.9-17.9c16.6,14.6,41.2,15.3,58.6,1.7l7,15.6l0.3,0.7l2.4-1l-7.4-16.7
				L292.7,480.6z M232.7,476.7c-17.2-16.7-17.6-44.2-0.9-61.4c16.7-17.2,44.2-17.6,61.4-0.9c17.2,16.7,17.6,44.2,0.9,61.4
				c-8.2,8.4-19.4,13.2-31.2,13.2C251.6,489,240.8,484.6,232.7,476.7z"/>
		</defs>
		<linearGradient id="SVGID_2_" gradientUnits="userSpaceOnUse" x1="83.6667" y1="448.8153" x2="690.3333" y2="448.8153">
			<stop  offset="0" style="stop-color:#428CE1"/>
			<stop  offset="0.23" style="stop-color:#00A6EF"/>
			<stop  offset="0.46" style="stop-color:#00BEEA"/>
			<stop  offset="0.74" style="stop-color:#00D2D5"/>
			<stop  offset="1" style="stop-color:#00E2B8"/>
		</linearGradient>
		<use xlink:href="#SVGID_1_"  style="overflow:visible;fill:url(#SVGID_2_);"/>
		<clipPath id="SVGID_3_">
			<use xlink:href="#SVGID_1_"  style="overflow:visible;"/>
		</clipPath>
		<linearGradient id="SVGID_4_" gradientUnits="userSpaceOnUse" x1="83.6667" y1="443.4102" x2="690.3333" y2="443.4102">
			<stop  offset="0" style="stop-color:#428CE1"/>
			<stop  offset="0.23" style="stop-color:#00A6EF"/>
			<stop  offset="0.46" style="stop-color:#00BEEA"/>
			<stop  offset="0.74" style="stop-color:#00D2D5"/>
			<stop  offset="1" style="stop-color:#00E2B8"/>
		</linearGradient>
		<rect x="215.1" y="397.8" class="st0" width="1.1" height="91.2"/>
		<linearGradient id="SVGID_5_" gradientUnits="userSpaceOnUse" x1="83.6667" y1="443.4102" x2="690.3333" y2="443.4102">
			<stop  offset="0" style="stop-color:#428CE1"/>
			<stop  offset="0.23" style="stop-color:#00A6EF"/>
			<stop  offset="0.46" style="stop-color:#00BEEA"/>
			<stop  offset="0.74" style="stop-color:#00D2D5"/>
			<stop  offset="1" style="stop-color:#00E2B8"/>
		</linearGradient>
		<rect x="216.3" y="397.8" class="st1" width="5.8" height="91.2"/>
		<linearGradient id="SVGID_6_" gradientUnits="userSpaceOnUse" x1="83.6667" y1="443.4102" x2="690.3333" y2="443.4102">
			<stop  offset="0" style="stop-color:#428CE1"/>
			<stop  offset="0.23" style="stop-color:#00A6EF"/>
			<stop  offset="0.46" style="stop-color:#00BEEA"/>
			<stop  offset="0.74" style="stop-color:#00D2D5"/>
			<stop  offset="1" style="stop-color:#00E2B8"/>
		</linearGradient>
		<rect x="222.1" y="397.8" class="st2" width="5.8" height="91.2"/>
		<linearGradient id="SVGID_7_" gradientUnits="userSpaceOnUse" x1="83.6667" y1="443.4102" x2="690.3333" y2="443.4102">
			<stop  offset="0" style="stop-color:#428CE1"/>
			<stop  offset="0.23" style="stop-color:#00A6EF"/>
			<stop  offset="0.46" style="stop-color:#00BEEA"/>
			<stop  offset="0.74" style="stop-color:#00D2D5"/>
			<stop  offset="1" style="stop-color:#00E2B8"/>
		</linearGradient>
		<rect x="227.9" y="397.8" class="st3" width="5.8" height="91.2"/>
		<linearGradient id="SVGID_8_" gradientUnits="userSpaceOnUse" x1="83.6667" y1="443.4102" x2="690.3333" y2="443.4102">
			<stop  offset="0" style="stop-color:#428CE1"/>
			<stop  offset="0.23" style="stop-color:#00A6EF"/>
			<stop  offset="0.46" style="stop-color:#00BEEA"/>
			<stop  offset="0.74" style="stop-color:#00D2D5"/>
			<stop  offset="1" style="stop-color:#00E2B8"/>
		</linearGradient>
		<rect x="233.7" y="397.8" class="st4" width="5.8" height="91.2"/>
		<linearGradient id="SVGID_9_" gradientUnits="userSpaceOnUse" x1="83.6667" y1="443.4102" x2="690.3333" y2="443.4102">
			<stop  offset="0" style="stop-color:#428CE1"/>
			<stop  offset="0.23" style="stop-color:#00A6EF"/>
			<stop  offset="0.46" style="stop-color:#00BEEA"/>
			<stop  offset="0.74" style="stop-color:#00D2D5"/>
			<stop  offset="1" style="stop-color:#00E2B8"/>
		</linearGradient>
		<rect x="239.5" y="397.8" class="st5" width="5.8" height="91.2"/>
		<linearGradient id="SVGID_10_" gradientUnits="userSpaceOnUse" x1="83.6667" y1="443.4102" x2="690.3333" y2="443.4102">
			<stop  offset="0" style="stop-color:#428CE1"/>
			<stop  offset="0.23" style="stop-color:#00A6EF"/>
			<stop  offset="0.46" style="stop-color:#00BEEA"/>
			<stop  offset="0.74" style="stop-color:#00D2D5"/>
			<stop  offset="1" style="stop-color:#00E2B8"/>
		</linearGradient>
		<rect x="245.4" y="397.8" class="st6" width="5.8" height="91.2"/>
		<linearGradient id="SVGID_11_" gradientUnits="userSpaceOnUse" x1="83.6667" y1="443.4102" x2="690.3333" y2="443.4102">
			<stop  offset="0" style="stop-color:#428CE1"/>
			<stop  offset="0.23" style="stop-color:#00A6EF"/>
			<stop  offset="0.46" style="stop-color:#00BEEA"/>
			<stop  offset="0.74" style="stop-color:#00D2D5"/>
			<stop  offset="1" style="stop-color:#00E2B8"/>
		</linearGradient>
		<rect x="251.2" y="397.8" class="st7" width="5.8" height="91.2"/>
		<linearGradient id="SVGID_12_" gradientUnits="userSpaceOnUse" x1="83.6667" y1="443.4102" x2="690.3333" y2="443.4102">
			<stop  offset="0" style="stop-color:#428CE1"/>
			<stop  offset="0.23" style="stop-color:#00A6EF"/>
			<stop  offset="0.46" style="stop-color:#00BEEA"/>
			<stop  offset="0.74" style="stop-color:#00D2D5"/>
			<stop  offset="1" style="stop-color:#00E2B8"/>
		</linearGradient>
		<rect x="257" y="397.8" class="st8" width="5.8" height="91.2"/>
		<linearGradient id="SVGID_13_" gradientUnits="userSpaceOnUse" x1="83.6667" y1="443.4102" x2="690.3333" y2="443.4102">
			<stop  offset="0" style="stop-color:#428CE1"/>
			<stop  offset="0.23" style="stop-color:#00A6EF"/>
			<stop  offset="0.46" style="stop-color:#00BEEA"/>
			<stop  offset="0.74" style="stop-color:#00D2D5"/>
			<stop  offset="1" style="stop-color:#00E2B8"/>
		</linearGradient>
		<rect x="262.8" y="397.8" class="st9" width="5.8" height="91.2"/>
		<linearGradient id="SVGID_14_" gradientUnits="userSpaceOnUse" x1="83.6667" y1="443.4102" x2="690.3333" y2="443.4102">
			<stop  offset="0" style="stop-color:#428CE1"/>
			<stop  offset="0.23" style="stop-color:#00A6EF"/>
			<stop  offset="0.46" style="stop-color:#00BEEA"/>
			<stop  offset="0.74" style="stop-color:#00D2D5"/>
			<stop  offset="1" style="stop-color:#00E2B8"/>
		</linearGradient>
		<rect x="268.6" y="397.8" class="st10" width="5.8" height="91.2"/>
		<linearGradient id="SVGID_15_" gradientUnits="userSpaceOnUse" x1="83.6667" y1="443.4102" x2="690.3333" y2="443.4102">
			<stop  offset="0" style="stop-color:#428CE1"/>
			<stop  offset="0.23" style="stop-color:#00A6EF"/>
			<stop  offset="0.46" style="stop-color:#00BEEA"/>
			<stop  offset="0.74" style="stop-color:#00D2D5"/>
			<stop  offset="1" style="stop-color:#00E2B8"/>
		</linearGradient>
		<rect x="274.5" y="397.8" class="st11" width="5.8" height="91.2"/>
		<linearGradient id="SVGID_16_" gradientUnits="userSpaceOnUse" x1="83.6667" y1="443.4102" x2="690.3333" y2="443.4102">
			<stop  offset="0" style="stop-color:#428CE1"/>
			<stop  offset="0.23" style="stop-color:#00A6EF"/>
			<stop  offset="0.46" style="stop-color:#00BEEA"/>
			<stop  offset="0.74" style="stop-color:#00D2D5"/>
			<stop  offset="1" style="stop-color:#00E2B8"/>
		</linearGradient>
		<rect x="280.3" y="397.8" class="st12" width="5.8" height="91.2"/>
		<linearGradient id="SVGID_17_" gradientUnits="userSpaceOnUse" x1="83.6667" y1="443.4102" x2="690.3333" y2="443.4102">
			<stop  offset="0" style="stop-color:#428CE1"/>
			<stop  offset="0.23" style="stop-color:#00A6EF"/>
			<stop  offset="0.46" style="stop-color:#00BEEA"/>
			<stop  offset="0.74" style="stop-color:#00D2D5"/>
			<stop  offset="1" style="stop-color:#00E2B8"/>
		</linearGradient>
		<rect x="286.1" y="397.8" class="st13" width="5.8" height="91.2"/>
		<linearGradient id="SVGID_18_" gradientUnits="userSpaceOnUse" x1="83.6667" y1="443.4102" x2="690.3333" y2="443.4102">
			<stop  offset="0" style="stop-color:#428CE1"/>
			<stop  offset="0.23" style="stop-color:#00A6EF"/>
			<stop  offset="0.46" style="stop-color:#00BEEA"/>
			<stop  offset="0.74" style="stop-color:#00D2D5"/>
			<stop  offset="1" style="stop-color:#00E2B8"/>
		</linearGradient>
		<rect x="291.9" y="397.8" class="st14" width="5.8" height="91.2"/>
		<linearGradient id="SVGID_19_" gradientUnits="userSpaceOnUse" x1="83.6667" y1="443.4102" x2="690.3333" y2="443.4102">
			<stop  offset="0" style="stop-color:#428CE1"/>
			<stop  offset="0.23" style="stop-color:#00A6EF"/>
			<stop  offset="0.46" style="stop-color:#00BEEA"/>
			<stop  offset="0.74" style="stop-color:#00D2D5"/>
			<stop  offset="1" style="stop-color:#00E2B8"/>
		</linearGradient>
		<rect x="297.8" y="397.8" class="st15" width="5.8" height="91.2"/>
		<linearGradient id="SVGID_20_" gradientUnits="userSpaceOnUse" x1="83.6667" y1="443.4102" x2="690.3333" y2="443.4102">
			<stop  offset="0" style="stop-color:#428CE1"/>
			<stop  offset="0.23" style="stop-color:#00A6EF"/>
			<stop  offset="0.46" style="stop-color:#00BEEA"/>
			<stop  offset="0.74" style="stop-color:#00D2D5"/>
			<stop  offset="1" style="stop-color:#00E2B8"/>
		</linearGradient>
		<rect x="303.6" y="397.8" class="st16" width="5.8" height="91.2"/>
		<linearGradient id="SVGID_21_" gradientUnits="userSpaceOnUse" x1="83.6667" y1="443.4102" x2="690.3333" y2="443.4102">
			<stop  offset="0" style="stop-color:#428CE1"/>
			<stop  offset="0.23" style="stop-color:#00A6EF"/>
			<stop  offset="0.46" style="stop-color:#00BEEA"/>
			<stop  offset="0.74" style="stop-color:#00D2D5"/>
			<stop  offset="1" style="stop-color:#00E2B8"/>
		</linearGradient>
		<rect x="309.4" y="397.8" class="st17" width="1.4" height="91.2"/>
		<linearGradient id="SVGID_22_" gradientUnits="userSpaceOnUse" x1="83.6667" y1="446.1107" x2="690.3333" y2="446.1107">
			<stop  offset="0" style="stop-color:#428CE1"/>
			<stop  offset="0.23" style="stop-color:#00A6EF"/>
			<stop  offset="0.46" style="stop-color:#00BEEA"/>
			<stop  offset="0.74" style="stop-color:#00D2D5"/>
			<stop  offset="1" style="stop-color:#00E2B8"/>
		</linearGradient>
		<rect x="211.5" y="394.2" class="st18" width="4.7" height="103.9"/>
		<linearGradient id="SVGID_23_" gradientUnits="userSpaceOnUse" x1="83.6667" y1="446.1107" x2="690.3333" y2="446.1107">
			<stop  offset="0" style="stop-color:#428CE1"/>
			<stop  offset="0.23" style="stop-color:#00A6EF"/>
			<stop  offset="0.46" style="stop-color:#00BEEA"/>
			<stop  offset="0.74" style="stop-color:#00D2D5"/>
			<stop  offset="1" style="stop-color:#00E2B8"/>
		</linearGradient>
		<rect x="216.3" y="394.2" class="st19" width="5.8" height="103.9"/>
		<linearGradient id="SVGID_24_" gradientUnits="userSpaceOnUse" x1="83.6667" y1="446.1107" x2="690.3333" y2="446.1107">
			<stop  offset="0" style="stop-color:#428CE1"/>
			<stop  offset="0.23" style="stop-color:#00A6EF"/>
			<stop  offset="0.46" style="stop-color:#00BEEA"/>
			<stop  offset="0.74" style="stop-color:#00D2D5"/>
			<stop  offset="1" style="stop-color:#00E2B8"/>
		</linearGradient>
		<rect x="222.1" y="394.2" class="st20" width="5.8" height="103.9"/>
		<linearGradient id="SVGID_25_" gradientUnits="userSpaceOnUse" x1="83.6667" y1="446.1107" x2="690.3333" y2="446.1107">
			<stop  offset="0" style="stop-color:#428CE1"/>
			<stop  offset="0.23" style="stop-color:#00A6EF"/>
			<stop  offset="0.46" style="stop-color:#00BEEA"/>
			<stop  offset="0.74" style="stop-color:#00D2D5"/>
			<stop  offset="1" style="stop-color:#00E2B8"/>
		</linearGradient>
		<rect x="227.9" y="394.2" class="st21" width="5.8" height="103.9"/>
		<linearGradient id="SVGID_26_" gradientUnits="userSpaceOnUse" x1="83.6667" y1="446.1107" x2="690.3333" y2="446.1107">
			<stop  offset="0" style="stop-color:#428CE1"/>
			<stop  offset="0.23" style="stop-color:#00A6EF"/>
			<stop  offset="0.46" style="stop-color:#00BEEA"/>
			<stop  offset="0.74" style="stop-color:#00D2D5"/>
			<stop  offset="1" style="stop-color:#00E2B8"/>
		</linearGradient>
		<rect x="233.7" y="394.2" class="st22" width="5.8" height="103.9"/>
		<linearGradient id="SVGID_27_" gradientUnits="userSpaceOnUse" x1="83.6667" y1="446.1107" x2="690.3333" y2="446.1107">
			<stop  offset="0" style="stop-color:#428CE1"/>
			<stop  offset="0.23" style="stop-color:#00A6EF"/>
			<stop  offset="0.46" style="stop-color:#00BEEA"/>
			<stop  offset="0.74" style="stop-color:#00D2D5"/>
			<stop  offset="1" style="stop-color:#00E2B8"/>
		</linearGradient>
		<rect x="239.5" y="394.2" class="st23" width="5.8" height="103.9"/>
		<linearGradient id="SVGID_28_" gradientUnits="userSpaceOnUse" x1="83.6667" y1="446.1107" x2="690.3333" y2="446.1107">
			<stop  offset="0" style="stop-color:#428CE1"/>
			<stop  offset="0.23" style="stop-color:#00A6EF"/>
			<stop  offset="0.46" style="stop-color:#00BEEA"/>
			<stop  offset="0.74" style="stop-color:#00D2D5"/>
			<stop  offset="1" style="stop-color:#00E2B8"/>
		</linearGradient>
		<rect x="245.4" y="394.2" class="st24" width="5.8" height="103.9"/>
		<linearGradient id="SVGID_29_" gradientUnits="userSpaceOnUse" x1="83.6667" y1="446.1107" x2="690.3333" y2="446.1107">
			<stop  offset="0" style="stop-color:#428CE1"/>
			<stop  offset="0.23" style="stop-color:#00A6EF"/>
			<stop  offset="0.46" style="stop-color:#00BEEA"/>
			<stop  offset="0.74" style="stop-color:#00D2D5"/>
			<stop  offset="1" style="stop-color:#00E2B8"/>
		</linearGradient>
		<rect x="251.2" y="394.2" class="st25" width="5.8" height="103.9"/>
		<linearGradient id="SVGID_30_" gradientUnits="userSpaceOnUse" x1="83.6667" y1="446.1107" x2="690.3333" y2="446.1107">
			<stop  offset="0" style="stop-color:#428CE1"/>
			<stop  offset="0.23" style="stop-color:#00A6EF"/>
			<stop  offset="0.46" style="stop-color:#00BEEA"/>
			<stop  offset="0.74" style="stop-color:#00D2D5"/>
			<stop  offset="1" style="stop-color:#00E2B8"/>
		</linearGradient>
		<rect x="257" y="394.2" class="st26" width="5.8" height="103.9"/>
		<linearGradient id="SVGID_31_" gradientUnits="userSpaceOnUse" x1="83.6667" y1="446.1107" x2="690.3333" y2="446.1107">
			<stop  offset="0" style="stop-color:#428CE1"/>
			<stop  offset="0.23" style="stop-color:#00A6EF"/>
			<stop  offset="0.46" style="stop-color:#00BEEA"/>
			<stop  offset="0.74" style="stop-color:#00D2D5"/>
			<stop  offset="1" style="stop-color:#00E2B8"/>
		</linearGradient>
		<rect x="262.8" y="394.2" class="st27" width="5.8" height="103.9"/>
		<linearGradient id="SVGID_32_" gradientUnits="userSpaceOnUse" x1="83.6667" y1="446.1107" x2="690.3333" y2="446.1107">
			<stop  offset="0" style="stop-color:#428CE1"/>
			<stop  offset="0.23" style="stop-color:#00A6EF"/>
			<stop  offset="0.46" style="stop-color:#00BEEA"/>
			<stop  offset="0.74" style="stop-color:#00D2D5"/>
			<stop  offset="1" style="stop-color:#00E2B8"/>
		</linearGradient>
		<rect x="268.6" y="394.2" class="st28" width="5.8" height="103.9"/>
		<linearGradient id="SVGID_33_" gradientUnits="userSpaceOnUse" x1="83.6667" y1="446.1107" x2="690.3333" y2="446.1107">
			<stop  offset="0" style="stop-color:#428CE1"/>
			<stop  offset="0.23" style="stop-color:#00A6EF"/>
			<stop  offset="0.46" style="stop-color:#00BEEA"/>
			<stop  offset="0.74" style="stop-color:#00D2D5"/>
			<stop  offset="1" style="stop-color:#00E2B8"/>
		</linearGradient>
		<rect x="274.5" y="394.2" class="st29" width="5.8" height="103.9"/>
		<linearGradient id="SVGID_34_" gradientUnits="userSpaceOnUse" x1="83.6667" y1="446.1107" x2="690.3333" y2="446.1107">
			<stop  offset="0" style="stop-color:#428CE1"/>
			<stop  offset="0.23" style="stop-color:#00A6EF"/>
			<stop  offset="0.46" style="stop-color:#00BEEA"/>
			<stop  offset="0.74" style="stop-color:#00D2D5"/>
			<stop  offset="1" style="stop-color:#00E2B8"/>
		</linearGradient>
		<rect x="280.3" y="394.2" class="st30" width="5.8" height="103.9"/>
		<linearGradient id="SVGID_35_" gradientUnits="userSpaceOnUse" x1="83.6667" y1="446.1107" x2="690.3333" y2="446.1107">
			<stop  offset="0" style="stop-color:#428CE1"/>
			<stop  offset="0.23" style="stop-color:#00A6EF"/>
			<stop  offset="0.46" style="stop-color:#00BEEA"/>
			<stop  offset="0.74" style="stop-color:#00D2D5"/>
			<stop  offset="1" style="stop-color:#00E2B8"/>
		</linearGradient>
		<rect x="286.1" y="394.2" class="st31" width="5.8" height="103.9"/>
		<linearGradient id="SVGID_36_" gradientUnits="userSpaceOnUse" x1="83.6667" y1="446.1107" x2="690.3333" y2="446.1107">
			<stop  offset="0" style="stop-color:#428CE1"/>
			<stop  offset="0.23" style="stop-color:#00A6EF"/>
			<stop  offset="0.46" style="stop-color:#00BEEA"/>
			<stop  offset="0.74" style="stop-color:#00D2D5"/>
			<stop  offset="1" style="stop-color:#00E2B8"/>
		</linearGradient>
		<rect x="291.9" y="394.2" class="st32" width="5.8" height="103.9"/>
		<linearGradient id="SVGID_37_" gradientUnits="userSpaceOnUse" x1="83.6667" y1="446.1107" x2="690.3333" y2="446.1107">
			<stop  offset="0" style="stop-color:#428CE1"/>
			<stop  offset="0.23" style="stop-color:#00A6EF"/>
			<stop  offset="0.46" style="stop-color:#00BEEA"/>
			<stop  offset="0.74" style="stop-color:#00D2D5"/>
			<stop  offset="1" style="stop-color:#00E2B8"/>
		</linearGradient>
		<rect x="297.8" y="394.2" class="st33" width="5.8" height="103.9"/>
		<linearGradient id="SVGID_38_" gradientUnits="userSpaceOnUse" x1="83.6667" y1="446.1107" x2="690.3333" y2="446.1107">
			<stop  offset="0" style="stop-color:#428CE1"/>
			<stop  offset="0.23" style="stop-color:#00A6EF"/>
			<stop  offset="0.46" style="stop-color:#00BEEA"/>
			<stop  offset="0.74" style="stop-color:#00D2D5"/>
			<stop  offset="1" style="stop-color:#00E2B8"/>
		</linearGradient>
		<rect x="303.6" y="394.2" class="st34" width="5.8" height="103.9"/>
		<linearGradient id="SVGID_39_" gradientUnits="userSpaceOnUse" x1="83.6667" y1="446.1107" x2="690.3333" y2="446.1107">
			<stop  offset="0" style="stop-color:#428CE1"/>
			<stop  offset="0.23" style="stop-color:#00A6EF"/>
			<stop  offset="0.46" style="stop-color:#00BEEA"/>
			<stop  offset="0.74" style="stop-color:#00D2D5"/>
			<stop  offset="1" style="stop-color:#00E2B8"/>
		</linearGradient>
		<rect x="309.4" y="394.2" class="st35" width="4.9" height="103.9"/>
	</g>
	<linearGradient id="SVGID_40_" gradientUnits="userSpaceOnUse" x1="83.6667" y1="448.9614" x2="690.3333" y2="448.9614">
		<stop  offset="0" style="stop-color:#428CE1"/>
		<stop  offset="0.23" style="stop-color:#00A6EF"/>
		<stop  offset="0.46" style="stop-color:#00BEEA"/>
		<stop  offset="0.74" style="stop-color:#00D2D5"/>
		<stop  offset="1" style="stop-color:#00E2B8"/>
	</linearGradient>
	<path class="st36" d="M298,499.2l-0.6-1.5l-6.5-14.6c-17.3,12.9-41.3,12.3-57.9-1.6l-7.7,17.6l-4.1-1.6l0.6-1.4l7.8-17.8
		c-0.7-0.7-1.4-1.5-2-2.2c-16.9-19.6-14.8-49.2,4.8-66.2c19.6-16.9,49.2-14.8,66.2,4.8c8.2,9.5,12.2,21.6,11.3,34.1
		c-0.9,12.2-6.3,23.3-15.3,31.4l7.6,17.2L298,499.2z M292.2,481.8l6.7,15.1l0.7-0.3l-6.7-15.1L292.2,481.8z M223.5,496.6l0.8,0.3
		l8-18.2l0.9,0.8c15.9,14,39.4,15,56.4,2.4l2.9-2.2c9.1-7.9,14.6-18.8,15.4-30.8c0.9-12-3-23.6-10.9-32.8
		c-16.3-18.8-44.8-20.9-63.6-4.6c-18.8,16.3-20.9,44.8-4.6,63.6c0.8,0.9,1.6,1.7,2.4,2.6l0.4,0.4L223.5,496.6z M262.8,489.9
		c-11.5,0-22.4-4.4-30.7-12.5c-8.5-8.2-13.2-19.3-13.4-31.1c-0.2-11.8,4.3-23,12.5-31.5c8.2-8.5,19.3-13.3,31.1-13.4
		c11.8-0.2,23,4.3,31.5,12.5c17.5,17,17.9,45.1,0.9,62.6c-8.3,8.5-19.9,13.4-31.8,13.4C262.9,489.9,262.8,489.9,262.8,489.9z
		 M263,403.1c-0.2,0-0.4,0-0.6,0c-11.3,0.2-22,4.7-29.9,12.9s-12.2,18.9-12,30.2c0.2,11.3,4.7,22,12.9,29.9l0,0
		c7.9,7.7,18.4,12,29.4,12c0.1,0,0.1,0,0.2,0c11.4,0,22.5-4.7,30.5-12.9c16.3-16.8,15.9-43.8-0.9-60.1
		C284.6,407.4,274.1,403.1,263,403.1z"/>
</g>
</svg>
